<svg xmlns="http://www.w3.org/2000/svg" viewBox="0 0 100 120" fill="none" stroke="#000" stroke-linecap="round" stroke-linejoin="round">
<path d="M 49.79 107.74 C 64.04 89.45 52.56 56.46 49.83 42.79" fill="none" stroke-width="3.52"/>
<path d="M 53.00 93.07 Q 66.83 92.55 74.49 77.54 Q 60.09 78.68 52.64 93.26 Z" fill="white" stroke-width="3.45"/>
<path d="M 53.04 93.04 Q 62.61 83.78 74.42 77.50" fill="none" stroke-width="2.27"/>
<path d="M 52.89 76.94 Q 44.44 64.97 27.30 63.71 Q 35.76 75.76 52.75 77.40 Z" fill="white" stroke-width="3.56"/>
<path d="M 53.04 61.57 Q 67.78 61.45 81.09 49.13 Q 65.82 49.33 53.04 61.49 Z" fill="white" stroke-width="4.00"/>
<path d="M 52.64 61.28 Q 65.71 53.70 80.94 49.15" fill="none" stroke-width="2.44"/>
<path d="M 48.84 105.85 Q 28.99 74.84 27.90 52.83 M 51.86 96.08 Q 71.26 84.60 74.20 68.56" fill="none" stroke-width="3.33"/>
<path d="M 66.82 28.29 C 66.25 28.91 65.79 30.28 64.23 30.23 C 63.56 31.14 60.99 31.31 59.96 31.43 C 59.13 31.57 58.02 31.60 58.08 32.01 C 57.40 32.83 58.05 33.42 58.93 34.08 C 59.08 35.45 60.45 36.96 60.97 38.44 C 61.34 39.94 61.55 41.96 61.68 42.53 C 61.20 43.12 59.03 42.60 58.12 42.46 C 56.87 41.83 55.46 39.86 54.42 39.02 C 53.18 38.72 52.43 37.61 52.32 37.68 C 51.30 37.60 51.15 38.78 51.04 40.32 C 50.07 40.90 49.65 43.72 48.94 44.46 C 48.12 45.36 46.85 44.82 46.42 44.18 C 45.60 43.67 45.07 42.64 44.56 41.50 C 44.22 40.53 44.96 38.41 44.78 37.25 C 44.99 36.58 45.11 35.15 44.45 35.11 C 44.53 34.57 43.45 35.23 42.56 35.72 C 41.11 35.93 39.71 36.09 38.36 36.62 C 36.71 36.35 34.88 36.42 34.29 35.86 C 34.00 34.92 34.95 33.63 35.64 33.09 C 36.01 31.56 38.11 30.98 38.84 30.22 C 39.86 29.14 41.24 28.74 41.15 28.23 C 40.99 27.62 39.90 27.30 39.31 26.92 C 38.00 25.71 36.00 24.48 35.63 24.03 C 34.89 22.84 35.94 22.31 36.90 22.20 C 37.58 21.38 38.13 21.12 39.08 21.32 C 40.55 20.77 41.91 21.98 43.06 21.69 C 44.22 22.42 44.96 22.63 44.98 22.16 C 45.64 22.31 45.22 21.43 45.09 20.38 C 45.09 18.99 44.81 17.39 45.33 16.25 C 45.27 14.97 45.75 13.00 46.15 12.37 C 47.20 11.90 48.34 13.01 48.97 13.81 C 49.85 14.78 50.13 16.69 50.82 17.52 C 51.14 18.80 51.48 19.86 51.83 20.16 C 52.38 19.90 52.83 19.37 53.98 18.35 C 54.83 17.53 55.82 16.41 57.30 15.54 C 58.66 14.82 60.50 13.81 61.28 13.84 C 62.07 14.32 62.01 15.94 61.77 16.99 C 61.60 18.82 60.21 20.23 59.93 21.64 C 59.12 22.72 58.72 23.78 58.86 24.29 C 59.05 24.69 59.92 24.58 61.36 25.10 C 62.61 24.95 65.48 25.14 66.24 25.92 C 67.23 26.42 66.84 27.61 66.84 28.31 Z" fill="white" stroke-width="3.83"/>
<path d="M 55.26 28.18 C 55.31 28.97 55.22 29.59 55.38 30.15 C 55.21 30.22 55.12 30.89 54.35 31.28 C 54.39 31.49 53.70 31.87 53.25 32.28 C 52.92 32.81 52.18 32.99 51.43 33.28 C 51.00 33.37 50.83 33.21 49.74 33.28 C 49.64 33.22 48.84 33.47 48.27 33.31 C 47.84 32.92 47.00 32.92 46.97 32.51 C 46.46 31.97 45.88 31.37 45.33 30.97 C 45.36 30.64 44.75 30.58 44.48 29.90 C 44.37 29.15 44.50 28.90 44.42 28.31 C 44.36 28.01 44.29 27.12 44.67 26.71 C 44.52 26.04 45.18 25.64 45.51 25.59 C 45.65 25.11 46.33 24.63 46.51 24.24 C 47.01 24.33 47.67 23.86 48.12 23.53 C 48.98 23.31 49.37 23.58 49.87 23.42 C 50.61 23.49 51.51 23.50 51.59 23.53 C 52.11 23.55 52.61 24.01 53.50 24.62 C 53.74 24.84 54.52 25.03 54.62 25.21 C 55.15 25.54 55.31 26.56 55.16 26.67 C 55.36 27.36 55.63 27.84 55.81 28.29 Z" fill="white" stroke-width="3.43"/>
<path d="M 53.08 28.54 C 52.95 28.28 53.30 28.32 52.92 28.31 C 53.10 28.51 52.97 28.35 53.11 28.73 C 52.97 28.72 53.06 29.07 52.74 28.78 C 52.57 29.01 52.99 29.05 52.97 28.63 C 52.51 29.23 52.61 29.05 52.78 28.85 C 52.63 29.12 52.27 28.76 52.58 28.72 C 52.02 28.86 52.38 28.84 52.10 28.73 C 52.16 28.61 52.20 28.59 52.03 28.79 C 52.19 28.47 52.20 28.42 51.97 28.25 C 51.93 28.25 51.66 28.13 51.88 28.39 C 52.14 28.23 52.13 28.30 51.87 27.93 C 52.21 28.06 51.69 27.74 51.79 27.77 C 51.81 27.89 52.15 27.92 52.34 28.02 C 51.94 27.88 52.30 27.91 52.33 27.54 C 52.13 27.78 52.73 27.54 52.40 27.44 C 52.57 27.81 52.58 27.69 52.97 27.49 C 52.77 27.58 52.75 27.53 52.77 27.98 C 52.67 28.01 53.13 28.06 53.25 28.12 C 52.83 28.04 52.83 28.01 53.11 28.25 C 53.27 28.48 53.14 28.40 52.97 28.21 Z" fill="black" stroke-width="3.65"/>
<path d="M 50.87 30.75 C 50.66 30.67 50.73 31.15 50.61 31.27 C 50.48 31.10 50.49 31.15 50.42 31.44 C 50.50 31.06 50.40 31.34 50.47 31.16 C 50.17 31.53 50.37 31.43 50.21 31.70 C 49.88 31.37 49.86 31.27 49.93 31.57 C 50.20 31.23 49.61 31.41 49.56 31.64 C 49.53 31.63 49.91 31.63 49.61 31.12 C 49.67 31.54 49.74 31.22 49.28 31.10 C 49.40 31.09 49.49 30.91 49.32 30.82 C 49.26 31.11 49.22 30.93 49.64 30.64 C 49.39 30.52 49.43 30.70 49.68 30.93 C 49.33 30.37 49.64 30.74 49.39 30.40 C 49.40 30.26 49.34 30.36 49.85 30.27 C 49.49 30.18 49.66 30.17 49.56 30.19 C 50.13 30.00 49.93 30.22 49.73 30.20 C 49.94 30.30 50.01 30.31 50.35 30.54 C 50.02 30.42 50.54 30.17 50.24 30.11 C 50.65 30.56 50.67 30.64 50.39 30.30 C 50.75 30.80 50.70 30.79 50.38 30.56 C 50.65 30.54 50.42 30.78 50.42 30.85 Z" fill="black" stroke-width="3.57"/>
<path d="M 47.98 28.61 C 48.18 28.43 47.86 28.25 47.79 28.34 C 48.07 28.43 48.12 28.91 47.81 28.59 C 47.87 28.52 47.92 29.08 48.01 29.02 C 48.06 28.79 47.54 28.73 47.54 29.00 C 47.90 28.90 47.35 29.04 47.45 29.13 C 47.47 29.09 47.54 28.93 47.12 28.69 C 47.33 28.61 47.46 28.62 47.17 28.92 C 47.32 28.69 47.09 28.57 47.19 28.78 C 46.86 28.64 47.24 28.65 46.98 28.32 C 46.82 28.56 46.74 28.31 46.61 28.46 C 46.91 28.32 47.18 28.10 46.70 28.27 C 47.15 28.30 46.80 27.85 47.25 28.09 C 46.81 28.23 47.07 27.86 47.42 28.07 C 47.48 27.81 47.41 27.57 47.20 28.03 C 47.61 28.05 47.53 27.77 47.32 27.97 C 47.59 27.51 47.90 27.49 47.53 27.50 C 47.72 27.73 47.52 28.05 47.77 27.76 C 47.65 27.71 47.68 28.00 48.07 27.97 C 48.20 28.28 48.27 27.92 48.21 28.00 C 47.88 28.32 47.97 28.30 48.15 28.18 Z" fill="black" stroke-width="3.69"/>
<path d="M 50.65 25.62 C 50.78 25.95 50.47 25.88 50.50 25.90 C 50.61 26.09 50.76 26.37 50.69 26.11 C 50.32 26.47 50.17 26.03 50.42 26.39 C 50.39 26.41 50.16 26.19 50.21 26.27 C 49.91 26.38 50.23 26.26 49.93 26.35 C 49.83 26.53 49.63 26.55 49.96 26.42 C 49.56 26.61 49.57 26.58 49.95 26.34 C 49.65 25.99 49.74 26.04 49.49 25.93 C 49.66 26.28 49.65 26.24 49.65 26.12 C 49.49 25.68 49.47 25.97 49.61 25.87 C 49.13 25.50 49.46 25.59 49.57 25.56 C 49.59 25.34 49.31 25.29 49.76 25.36 C 49.48 25.61 49.44 25.46 49.80 25.46 C 49.74 25.47 49.80 25.08 49.73 25.32 C 49.59 25.24 49.67 25.17 50.25 25.49 C 49.79 25.38 50.39 25.05 50.40 25.38 C 50.19 25.19 50.58 25.45 50.13 25.06 C 50.12 25.14 50.24 25.61 50.68 25.57 C 50.37 25.61 50.60 25.32 50.80 25.52 C 50.55 25.62 50.35 25.74 50.40 26.05 Z" fill="black" stroke-width="3.34"/>
<path d="M 37.65 54.50 C 37.57 55.14 37.28 55.34 36.68 55.82 C 35.69 55.86 34.35 56.02 33.74 56.63 C 33.22 56.25 32.45 56.62 32.29 56.71 C 32.33 56.92 32.88 57.22 32.93 58.11 C 33.29 58.38 34.08 59.36 34.38 60.29 C 34.29 61.33 34.51 62.27 34.48 62.60 C 34.51 63.10 33.09 62.74 32.78 62.37 C 31.82 62.21 30.90 61.33 30.19 60.87 C 29.74 60.46 29.53 59.66 29.05 59.63 C 28.96 59.73 28.59 60.75 28.62 61.47 C 27.81 61.72 27.77 63.00 27.15 63.50 C 26.77 64.56 25.84 65.33 25.42 64.98 C 25.16 64.87 24.77 64.12 24.49 63.67 C 24.00 62.90 24.64 61.33 24.72 60.79 C 24.39 59.67 24.69 59.33 24.54 58.96 C 23.87 58.86 23.45 58.80 22.87 59.13 C 21.97 59.56 20.89 60.14 19.88 60.05 C 19.10 59.56 18.72 59.38 18.91 58.65 C 18.71 58.57 19.19 57.72 19.44 56.86 C 19.99 56.58 21.13 55.74 21.43 55.47 C 22.27 54.83 22.40 54.64 22.34 54.70 C 22.81 54.25 21.98 53.85 21.23 53.50 C 20.79 53.25 19.79 52.71 19.69 51.61 C 19.16 50.96 18.41 50.06 18.24 50.17 C 18.61 49.58 19.74 49.03 19.96 49.34 C 20.89 48.95 22.49 49.83 22.88 50.12 C 23.40 50.21 24.19 50.24 24.60 49.88 C 24.53 50.07 24.41 49.54 24.62 48.40 C 24.29 47.64 24.59 46.22 24.34 45.78 C 24.70 45.30 25.55 44.87 25.55 45.46 C 26.56 45.39 26.68 45.69 27.51 46.26 C 27.54 46.48 28.34 47.62 28.58 48.42 C 28.37 48.90 28.88 49.65 29.07 49.66 C 29.38 49.63 29.50 49.07 30.13 48.75 C 30.55 48.27 31.16 47.64 32.14 47.06 C 32.67 46.76 34.09 46.25 34.53 46.16 C 34.74 46.27 34.91 47.60 34.88 47.85 C 34.72 48.65 33.80 49.93 33.34 50.40 C 32.99 51.45 33.05 51.76 32.83 51.85 C 32.94 52.36 33.73 52.17 34.34 52.32 C 35.42 52.86 36.38 52.87 37.24 53.15 C 37.84 53.46 38.03 54.12 37.73 54.72 Z" fill="white" stroke-width="3.79"/>
<path d="M 31.52 54.53 C 31.87 54.78 31.31 55.43 31.27 55.25 C 31.27 55.87 31.08 56.34 30.93 56.24 C 30.43 56.68 30.48 56.93 29.89 57.29 C 29.51 57.31 29.35 57.49 28.91 57.39 C 28.60 57.71 28.09 57.71 27.73 57.76 C 27.31 58.04 27.02 57.76 26.58 57.59 C 26.36 57.25 26.41 57.49 25.58 56.85 C 25.80 56.64 25.24 56.88 25.12 56.16 C 24.74 56.23 24.66 55.89 24.35 55.48 C 24.37 55.13 24.06 55.03 24.03 54.74 C 24.19 53.85 24.21 53.92 24.35 53.41 C 24.62 53.22 24.76 52.76 25.07 52.51 C 25.21 52.39 25.58 52.03 26.06 51.71 C 26.00 51.57 26.57 51.80 26.71 51.15 C 27.10 51.30 27.42 51.32 27.77 51.21 C 28.16 51.08 28.41 51.22 29.15 51.57 C 29.20 51.29 30.03 51.59 30.33 52.11 C 30.46 51.74 30.60 52.49 30.72 52.39 C 30.94 52.93 31.13 52.92 31.30 53.61 C 31.28 53.99 31.35 54.07 31.30 54.63 Z" fill="white" stroke-width="3.35"/>
<path d="M 30.06 54.36 C 30.07 54.38 29.91 54.79 29.81 54.60 C 29.90 54.46 29.79 54.92 30.03 54.55 C 30.05 54.76 30.01 55.02 29.73 54.86 C 29.82 55.16 29.81 55.13 29.89 55.04 C 29.38 55.08 29.87 55.20 29.44 54.88 C 29.50 55.30 29.30 54.90 29.27 55.14 C 29.05 54.85 29.18 55.17 29.37 55.04 C 29.40 54.79 28.88 54.94 29.28 54.57 C 28.83 54.93 28.92 54.62 28.74 54.79 C 29.09 54.74 28.86 54.28 29.03 54.57 C 29.18 54.63 28.76 54.50 28.94 54.57 C 29.26 54.07 29.28 54.35 28.80 53.94 C 29.02 53.79 29.01 54.00 29.06 54.01 C 29.19 54.10 29.55 54.16 29.44 53.81 C 29.66 53.65 29.29 53.59 29.73 54.13 C 29.72 53.86 29.95 54.02 29.54 53.93 C 29.49 54.04 30.05 53.84 29.68 53.91 C 29.93 53.76 29.90 54.31 29.74 54.16 C 30.26 53.90 30.23 54.32 29.86 54.58 C 30.15 54.61 30.19 54.61 30.28 54.46 Z" fill="black" stroke-width="3.42"/>
<path d="M 28.40 56.04 C 28.27 56.26 28.46 56.15 28.21 56.09 C 28.74 56.29 28.64 56.69 28.52 56.36 C 28.63 56.48 28.24 56.41 28.49 56.44 C 27.98 56.73 27.99 56.60 27.95 56.84 C 28.28 56.95 27.85 56.56 28.05 56.94 C 27.87 56.87 27.91 56.64 27.54 56.62 C 27.90 56.86 27.46 56.79 27.72 56.56 C 27.76 56.67 27.38 56.26 27.18 56.23 C 27.41 56.70 27.25 56.25 27.59 56.43 C 27.12 56.00 27.38 56.06 27.48 56.36 C 27.54 55.94 27.21 55.87 27.35 55.83 C 27.20 55.89 27.57 55.51 27.21 55.88 C 27.60 55.55 27.60 55.68 27.78 55.70 C 27.77 55.85 27.49 55.77 27.99 55.27 C 27.71 55.56 27.89 55.57 27.90 55.66 C 27.75 55.35 27.98 55.52 28.28 55.76 C 28.24 55.80 28.21 55.74 28.24 55.67 C 28.19 55.93 28.32 55.45 28.58 56.03 C 28.56 55.88 28.49 56.14 28.60 55.79 C 28.81 55.87 28.68 56.11 28.70 56.32 Z" fill="black" stroke-width="3.54"/>
<path d="M 27.11 54.44 C 27.12 54.29 26.68 54.80 26.92 54.51 C 26.82 54.45 26.98 55.07 26.85 54.85 C 26.78 54.86 26.75 54.96 26.44 55.24 C 26.77 55.22 26.60 55.13 26.66 54.92 C 26.31 55.09 26.51 54.94 26.27 55.05 C 26.40 55.00 26.43 55.11 25.94 55.21 C 26.32 55.19 25.73 54.98 25.85 54.96 C 25.93 54.87 26.07 55.01 25.85 54.56 C 25.63 54.61 25.73 54.93 25.73 54.44 C 25.96 54.37 25.69 54.42 25.95 54.19 C 25.71 54.23 25.51 54.44 25.68 54.18 C 25.99 53.95 25.75 54.04 25.74 53.91 C 25.63 54.04 26.14 53.99 25.97 54.23 C 25.86 53.71 26.25 54.08 25.86 53.63 C 25.94 53.84 26.12 54.18 26.44 53.64 C 26.07 53.91 26.27 53.93 26.31 53.98 C 26.58 53.76 26.63 54.05 26.72 54.09 C 26.68 54.00 26.97 53.91 27.04 54.05 C 26.99 53.90 26.93 54.21 27.09 54.19 C 26.62 54.52 26.73 54.13 26.71 54.53 Z" fill="black" stroke-width="3.42"/>
<path d="M 28.37 52.58 C 28.75 53.03 28.70 53.27 28.37 53.15 C 28.47 52.83 28.60 53.43 28.60 52.93 C 28.58 53.32 28.40 53.21 28.25 53.07 C 28.49 53.64 28.28 53.63 28.29 53.70 C 28.04 53.52 27.81 53.74 27.79 53.28 C 27.64 53.65 27.67 53.15 27.66 53.34 C 27.70 53.20 27.51 53.24 27.30 53.13 C 27.39 53.17 27.77 53.44 27.36 53.27 C 27.26 53.00 27.55 53.07 27.18 53.33 C 27.54 53.21 27.45 52.64 27.28 52.78 C 27.08 52.74 27.51 52.89 27.55 52.43 C 27.38 52.75 27.15 52.70 27.40 52.24 C 27.72 52.29 27.56 52.62 27.56 52.24 C 27.53 52.23 27.41 52.54 27.93 52.32 C 27.70 52.22 27.77 52.51 27.68 52.14 C 27.82 52.49 28.29 52.26 27.93 52.17 C 27.99 52.57 28.44 52.41 28.00 52.35 C 28.35 52.51 28.15 52.65 28.28 52.59 C 28.38 52.75 28.41 52.64 28.27 52.61 C 28.51 52.76 28.43 52.53 28.70 52.92 Z" fill="black" stroke-width="3.38"/>
<path d="M 83.26 68.10 C 83.23 68.52 82.87 69.30 82.17 69.38 C 82.00 69.83 80.65 69.58 80.29 69.72 C 79.34 70.13 78.84 69.90 79.22 70.38 C 78.88 70.67 79.02 71.02 79.42 71.17 C 79.62 71.83 80.34 72.97 80.45 73.63 C 80.35 74.28 80.86 75.14 80.79 75.69 C 80.25 75.80 79.72 75.60 79.05 75.33 C 78.09 74.97 77.39 73.91 76.79 73.99 C 76.69 73.27 76.31 72.97 75.74 72.94 C 75.47 73.05 75.74 73.76 75.39 74.05 C 75.11 74.69 74.43 75.63 74.51 76.30 C 73.59 76.77 73.29 77.97 72.51 77.89 C 71.98 77.43 72.13 77.06 71.93 76.19 C 71.83 75.71 71.51 74.52 71.67 73.94 C 71.74 73.17 72.02 72.59 71.58 72.30 C 71.70 71.84 70.69 72.48 70.41 72.76 C 69.82 72.53 68.44 73.46 68.01 73.10 C 67.31 72.78 67.58 71.91 67.52 71.64 C 67.77 70.96 68.12 71.01 68.53 70.21 C 68.75 69.68 69.55 69.31 69.87 69.12 C 70.39 68.50 70.58 68.71 70.50 68.55 C 70.75 68.15 70.45 67.65 69.85 67.72 C 69.26 67.46 68.79 66.85 68.52 66.21 C 67.77 65.59 66.30 64.43 66.33 64.04 C 66.29 64.03 67.07 63.51 67.76 63.43 C 68.82 63.81 69.68 64.27 70.38 64.25 C 71.07 64.48 71.49 64.37 72.08 64.25 C 72.26 64.05 71.91 63.74 71.66 63.35 C 71.77 62.67 71.91 60.99 71.99 60.64 C 72.21 60.00 72.55 60.31 72.79 60.44 C 73.38 60.76 73.77 60.76 74.32 61.22 C 74.89 61.48 74.88 62.49 75.41 63.36 C 75.26 63.63 75.76 64.04 75.82 64.44 C 75.89 64.05 76.40 63.98 76.97 63.35 C 77.05 63.37 77.44 62.75 78.65 62.37 C 78.98 61.94 80.43 60.64 80.58 60.74 C 80.88 60.93 80.91 61.92 80.87 62.45 C 80.78 63.16 80.17 64.27 79.74 65.13 C 79.52 65.58 79.23 65.78 79.19 66.34 C 79.30 66.70 79.85 66.14 80.40 66.30 C 81.33 66.47 82.62 66.65 83.17 67.17 C 83.39 67.51 83.44 67.82 83.69 68.47 Z" fill="white" stroke-width="3.76"/>
<path d="M 77.72 68.17 C 78.11 68.34 77.66 68.67 77.75 68.96 C 77.49 69.37 77.76 69.42 77.35 69.82 C 77.20 69.89 76.64 70.14 76.75 70.58 C 76.53 70.34 76.01 70.90 75.97 70.60 C 75.37 70.75 75.10 71.00 74.94 71.20 C 74.52 71.01 73.93 71.07 73.96 70.97 C 73.65 70.55 73.21 70.57 73.23 70.35 C 72.98 70.38 72.66 70.20 72.14 70.10 C 72.24 69.41 71.88 69.28 72.16 69.26 C 71.78 69.05 71.98 68.68 71.70 68.51 C 71.98 67.98 72.17 67.58 71.96 67.57 C 71.91 67.04 72.42 66.73 72.49 66.50 C 72.70 66.78 72.58 66.31 73.22 66.22 C 73.05 65.84 73.76 65.96 73.79 65.65 C 74.16 65.88 74.40 65.32 74.61 65.52 C 75.44 65.62 75.60 65.78 75.76 65.73 C 76.31 65.76 76.57 66.19 76.72 66.15 C 76.59 66.10 76.85 66.54 77.19 66.81 C 77.33 67.13 77.30 67.39 77.86 67.44 C 77.55 67.86 78.01 68.27 78.08 68.32 Z" fill="white" stroke-width="3.99"/>
<path d="M 51.21 82.84 Q 68.00 78.30 78.73 60.17 Q 61.58 64.74 51.08 82.82 Z" fill="white" stroke-width="3.78"/>
</svg>
