<svg xmlns="http://www.w3.org/2000/svg" viewBox="0 0 100 120" fill="none" stroke="#000" stroke-linecap="round" stroke-linejoin="round">
<path d="M 50.14 107.97 C 61.86 89.54 51.14 54.73 49.81 40.92" fill="none" stroke-width="3.37"/>
<path d="M 52.35 93.21 Q 66.50 94.35 78.49 81.99 Q 64.17 80.35 52.31 93.18 Z" fill="white" stroke-width="3.86"/>
<path d="M 52.22 92.75 Q 64.11 86.00 78.54 82.09" fill="none" stroke-width="2.42"/>
<path d="M 51.95 76.23 Q 44.36 63.20 26.48 60.45 Q 34.54 74.00 52.28 76.70 Z" fill="white" stroke-width="3.98"/>
<path d="M 52.32 59.73 Q 66.20 59.50 76.29 46.42 Q 62.20 46.82 52.44 59.99 Z" fill="white" stroke-width="3.80"/>
<path d="M 52.31 59.89 Q 63.20 51.69 75.98 46.09" fill="none" stroke-width="2.17"/>
<path d="M 49.85 74.83 Q 22.43 55.64 23.61 46.99 M 51.20 74.49 Q 73.05 58.11 78.51 53.72" fill="none" stroke-width="3.97"/>
<path d="M 43.93 47.75 C 44.25 48.11 43.81 48.27 43.65 48.19 C 43.36 48.93 42.83 49.22 42.36 49.33 C 41.58 49.18 40.51 49.43 39.76 49.29 C 38.71 49.46 38.05 49.78 36.77 49.82 C 36.03 49.29 34.89 49.35 33.96 49.17 C 32.90 49.25 31.85 48.97 30.62 48.63 C 29.42 48.37 28.61 48.19 27.88 47.89 C 27.08 47.52 26.15 47.48 25.73 46.96 C 25.19 46.56 24.43 46.17 24.20 45.89 C 24.23 45.56 24.14 45.02 24.20 45.17 C 23.95 44.85 24.26 44.12 24.47 43.84 C 24.92 43.66 25.26 43.44 26.24 43.44 C 26.74 42.91 27.50 43.00 28.45 42.94 C 29.08 42.66 30.54 42.98 31.30 42.82 C 32.58 42.96 33.77 43.10 34.44 43.04 C 35.67 42.90 36.43 43.41 37.58 43.44 C 38.61 44.13 39.55 43.95 40.64 44.70 C 41.53 44.57 42.23 45.21 42.77 45.36 C 43.49 45.97 43.63 46.00 43.57 46.37 C 43.94 46.84 44.22 47.47 44.27 47.78 Z" fill="white" stroke-width="4.03"/>
<path d="M 38.55 54.85 C 38.39 55.50 38.43 55.70 38.16 55.55 C 37.97 55.75 37.08 55.33 36.87 55.42 C 36.31 54.82 35.52 54.58 35.09 54.59 C 34.59 54.39 34.01 53.76 33.06 53.24 C 32.60 52.94 31.40 52.07 31.11 51.63 C 30.12 50.97 29.80 50.73 29.18 49.83 C 28.54 49.42 27.85 48.61 27.54 48.36 C 27.13 47.71 26.80 47.05 26.25 46.57 C 26.26 46.04 26.43 45.85 25.92 45.27 C 26.06 45.03 25.97 44.44 26.29 44.38 C 26.07 44.23 26.49 44.42 26.74 44.08 C 27.24 44.06 27.75 44.42 28.12 44.69 C 28.94 44.97 29.09 45.20 29.72 45.42 C 30.82 45.61 31.43 45.99 31.89 46.15 C 32.54 46.87 33.12 47.58 34.02 48.32 C 34.71 48.90 35.18 49.32 36.21 49.73 C 36.44 50.23 37.14 50.74 37.50 51.23 C 37.80 51.79 38.59 52.83 38.92 53.23 C 38.79 53.53 39.15 53.74 38.87 54.10 C 38.93 54.61 39.00 55.01 38.95 54.85 Z" fill="white" stroke-width="3.92"/>
<path d="M 31.68 61.19 C 31.31 61.52 30.81 61.33 30.36 61.36 C 29.96 61.15 29.52 60.62 29.06 60.16 C 28.96 59.35 28.23 59.15 27.91 58.35 C 27.83 57.82 27.20 56.88 26.81 56.16 C 26.31 54.80 25.99 53.77 25.73 53.01 C 25.62 52.00 25.32 50.98 25.10 50.36 C 24.82 49.32 25.00 48.25 24.68 47.36 C 24.51 46.65 24.60 45.94 24.82 45.44 C 25.13 44.80 25.50 44.37 25.46 43.80 C 25.97 43.68 26.00 43.34 26.52 43.40 C 26.50 43.13 27.32 42.99 27.75 43.08 C 27.69 43.73 28.45 43.64 28.96 43.96 C 29.09 44.81 29.80 45.13 30.22 46.05 C 30.28 46.59 30.76 47.41 31.38 48.49 C 31.51 49.61 31.82 50.59 32.30 51.27 C 32.57 52.42 32.28 53.20 32.52 54.12 C 32.99 54.91 32.99 56.22 33.22 56.93 C 33.19 57.85 33.28 58.33 32.95 59.19 C 32.85 59.97 32.41 59.99 32.60 60.47 C 32.27 60.81 31.86 61.36 31.66 61.29 Z" fill="white" stroke-width="3.47"/>
<path d="M 22.31 59.72 C 21.97 59.43 22.24 59.33 21.69 59.03 C 21.86 58.56 21.34 58.39 21.21 57.74 C 21.09 57.25 21.50 56.68 21.35 55.72 C 21.79 55.28 21.75 54.26 22.02 53.54 C 22.19 52.82 22.28 52.21 22.22 51.40 C 22.83 50.63 22.98 49.75 23.09 48.87 C 23.51 48.43 24.10 47.53 24.15 47.27 C 24.78 46.43 25.00 46.22 25.17 45.68 C 25.48 45.30 25.96 44.83 26.60 44.49 C 26.67 44.20 26.86 44.70 27.06 44.80 C 27.54 44.88 27.76 45.11 27.54 45.40 C 27.99 45.33 28.21 45.94 28.51 46.45 C 28.03 46.68 28.42 47.77 28.41 47.93 C 28.17 48.99 27.78 49.81 27.50 50.24 C 27.44 51.40 27.25 52.15 27.48 52.87 C 27.21 53.53 26.86 54.31 26.47 54.99 C 25.84 55.61 25.62 56.92 25.16 57.51 C 25.10 57.92 24.77 58.04 24.07 58.46 C 23.84 59.08 23.59 59.28 23.23 59.79 C 22.86 59.56 22.92 59.77 22.38 59.56 Z" fill="white" stroke-width="3.36"/>
<path d="M 13.36 54.61 C 13.49 54.56 13.12 54.42 12.99 54.14 C 13.45 53.32 13.54 53.03 13.57 52.56 C 14.32 52.00 14.32 51.20 15.26 50.88 C 15.57 50.06 16.42 49.49 17.23 48.96 C 17.65 48.21 18.65 47.68 19.73 47.14 C 20.47 46.68 21.03 45.69 21.78 45.65 C 22.86 45.11 23.53 44.38 24.58 44.37 C 25.22 43.65 25.69 43.73 26.30 43.62 C 27.07 43.09 27.33 43.72 27.62 43.47 C 28.44 43.55 28.90 43.50 28.76 43.97 C 29.18 43.99 29.16 44.33 28.94 45.24 C 28.92 45.43 28.34 46.04 28.32 46.36 C 27.80 46.89 27.35 47.60 26.74 48.26 C 26.57 48.67 26.02 49.48 24.81 50.19 C 24.54 50.80 23.51 50.93 22.64 51.51 C 22.03 52.13 21.17 53.28 20.52 53.17 C 19.65 54.04 18.59 53.90 17.99 54.42 C 16.89 54.78 16.15 55.00 15.53 55.30 C 14.96 55.65 14.61 55.29 14.13 55.63 C 13.72 55.66 13.51 55.37 13.65 54.86 Z" fill="white" stroke-width="3.56"/>
<path d="M 10.64 47.56 C 10.63 47.05 10.81 47.12 11.01 46.70 C 11.40 46.24 11.66 46.08 12.29 45.27 C 12.33 45.11 13.14 44.61 13.85 44.42 C 14.64 44.36 15.52 43.80 16.49 43.84 C 17.71 43.74 18.29 43.45 19.64 43.53 C 20.28 43.37 21.41 42.95 22.38 42.82 C 23.17 43.16 24.51 42.79 25.05 42.93 C 25.98 43.18 26.85 43.16 27.27 43.69 C 28.08 43.48 28.50 43.79 28.44 44.19 C 29.02 44.25 29.06 44.92 29.07 45.27 C 29.18 45.10 28.88 45.85 28.67 45.92 C 28.85 46.03 28.61 46.37 27.69 46.78 C 27.56 46.99 26.64 47.84 25.99 47.87 C 24.81 48.32 24.09 48.42 22.88 48.55 C 22.24 48.96 21.50 49.10 20.10 49.32 C 19.14 49.15 18.43 49.46 17.58 49.64 C 16.58 49.19 15.55 49.30 14.74 49.57 C 13.83 49.01 12.90 49.05 12.26 48.83 C 11.73 48.85 11.49 48.59 10.86 48.08 C 10.72 48.10 10.49 47.57 10.46 47.49 Z" fill="white" stroke-width="3.38"/>
<path d="M 12.94 38.25 C 12.79 37.59 13.03 37.44 13.63 37.47 C 13.57 37.18 14.34 37.10 14.85 37.22 C 15.04 37.16 15.97 37.42 16.92 37.72 C 17.66 38.02 18.35 37.86 19.11 38.65 C 20.02 38.62 21.08 39.14 21.63 39.52 C 22.45 39.99 23.35 40.34 24.12 40.93 C 25.33 41.19 25.70 42.15 26.24 42.68 C 27.01 42.71 27.67 43.19 27.83 43.65 C 28.57 44.47 28.61 44.91 28.59 45.06 C 28.86 45.38 28.77 45.99 28.47 45.85 C 28.36 46.15 27.92 46.77 27.99 46.76 C 27.62 46.57 27.08 46.66 26.29 46.91 C 26.02 46.74 25.30 46.35 24.07 46.18 C 23.83 46.30 22.89 45.92 21.87 45.68 C 21.31 45.45 19.93 45.04 19.61 44.34 C 18.62 44.04 17.73 43.39 16.85 42.92 C 16.36 42.75 15.66 42.01 14.52 41.44 C 13.94 41.28 13.90 40.33 13.12 39.97 C 12.69 39.79 12.53 39.27 12.48 38.78 C 12.61 38.33 12.67 38.01 12.93 37.92 Z" fill="white" stroke-width="3.63"/>
<path d="M 19.61 31.77 C 19.93 31.64 20.29 31.58 20.87 31.22 C 20.70 31.28 21.32 31.62 21.71 32.01 C 22.43 32.16 22.55 32.82 22.90 33.46 C 23.40 34.19 24.39 34.70 24.70 35.38 C 25.14 36.30 25.68 37.19 26.19 37.87 C 26.28 38.27 26.48 39.62 27.04 40.30 C 27.54 40.79 27.45 41.60 27.70 42.55 C 28.15 42.99 28.36 43.50 28.23 44.53 C 27.94 44.74 28.18 45.41 27.91 45.86 C 27.81 46.00 27.78 46.08 27.37 46.13 C 27.40 46.54 27.12 46.47 26.70 46.44 C 26.23 46.09 25.79 45.93 25.56 45.57 C 24.95 45.16 24.56 44.95 24.01 44.16 C 23.68 43.92 23.31 42.85 22.64 42.15 C 22.12 41.86 21.69 41.04 21.21 40.04 C 21.22 39.26 20.86 38.56 20.63 37.75 C 20.06 36.85 19.98 35.93 19.19 35.09 C 19.18 34.45 19.01 33.99 19.36 33.30 C 18.87 32.68 18.87 32.42 19.47 32.02 C 19.48 32.03 19.81 31.80 19.92 31.40 Z" fill="white" stroke-width="3.61"/>
<path d="M 28.55 29.69 C 28.96 29.36 29.41 29.48 29.52 29.63 C 29.60 30.09 30.26 30.60 30.33 31.13 C 30.47 31.52 30.48 32.32 30.90 33.13 C 31.00 34.09 30.45 34.78 30.80 35.88 C 30.64 36.56 30.64 37.32 30.67 38.50 C 30.56 39.47 30.34 40.29 30.16 40.96 C 30.13 42.37 29.87 43.09 29.75 43.65 C 29.27 44.23 29.15 45.31 28.89 45.87 C 28.44 46.03 27.97 46.72 27.98 46.68 C 27.48 46.85 27.11 47.13 26.87 46.83 C 26.51 46.66 26.19 46.77 26.11 46.78 C 25.53 46.18 25.81 45.39 25.34 45.21 C 25.24 44.66 25.02 43.89 24.83 43.07 C 24.70 42.40 24.83 41.62 24.92 40.60 C 24.50 39.51 24.92 39.05 25.15 37.83 C 25.19 36.82 25.32 35.91 25.42 35.24 C 25.61 34.26 25.99 33.44 26.27 32.73 C 26.55 31.77 26.46 31.29 26.94 30.99 C 26.99 30.37 27.58 30.04 27.87 29.84 C 27.89 29.57 28.27 29.20 28.81 29.36 Z" fill="white" stroke-width="3.68"/>
<path d="M 37.10 31.07 C 37.36 31.72 37.72 32.01 37.71 32.08 C 38.13 32.96 38.05 33.37 37.66 33.69 C 37.73 34.32 37.56 35.35 36.90 35.95 C 36.66 36.90 36.15 38.12 35.60 38.70 C 35.33 39.71 34.58 40.63 33.53 41.33 C 33.35 42.30 32.52 43.24 31.92 43.51 C 31.24 44.64 30.23 45.29 29.75 46.09 C 29.36 46.29 28.17 46.93 27.73 47.22 C 27.45 47.64 26.77 48.04 26.14 47.65 C 25.71 47.75 25.70 47.56 25.05 47.45 C 25.02 47.43 24.95 47.35 24.83 46.74 C 25.01 46.00 24.46 45.64 24.84 45.28 C 25.03 44.22 25.27 43.71 25.60 42.76 C 26.09 42.04 26.43 40.83 27.09 40.39 C 27.32 39.66 27.81 38.33 28.70 37.63 C 29.36 36.76 29.75 36.01 30.63 35.10 C 31.48 34.41 31.86 33.31 32.68 32.89 C 33.30 32.18 34.34 31.92 34.54 31.89 C 35.33 31.38 36.02 31.30 36.26 30.87 C 36.72 30.98 37.31 31.03 37.66 31.49 Z" fill="white" stroke-width="3.59"/>
<path d="M 42.34 37.89 C 42.88 38.25 42.59 38.86 42.63 39.44 C 42.26 39.76 42.08 40.07 41.90 40.66 C 41.67 40.93 40.56 41.91 40.07 42.10 C 39.12 42.73 38.57 43.53 37.63 43.75 C 36.62 44.62 36.17 45.01 35.01 45.61 C 33.69 45.79 32.88 46.07 32.28 46.38 C 31.21 46.86 30.42 46.80 29.08 47.36 C 28.54 47.58 27.92 47.07 27.33 47.33 C 26.26 47.53 25.64 47.65 24.98 47.21 C 24.62 47.20 24.63 46.79 24.35 46.46 C 24.34 46.31 24.16 45.68 24.46 45.10 C 24.15 45.10 24.68 44.69 25.25 43.84 C 25.55 43.63 25.98 42.91 27.07 42.11 C 27.70 41.77 28.30 41.01 29.55 40.74 C 30.33 40.29 30.88 39.37 32.28 39.22 C 32.79 38.88 34.17 38.48 35.20 37.81 C 36.09 37.98 36.94 37.40 37.45 37.36 C 38.78 37.14 39.66 36.88 40.01 36.89 C 40.58 36.84 41.67 37.33 41.86 37.00 C 42.43 37.45 42.41 37.96 42.36 38.20 Z" fill="white" stroke-width="3.61"/>
<path d="M 30.83 45.26 C 31.25 45.59 31.19 46.20 30.66 46.41 C 30.71 46.98 30.32 46.95 30.29 47.40 C 29.87 47.66 29.61 48.29 29.14 48.01 C 29.19 48.43 28.80 48.71 28.07 48.56 C 27.82 48.76 27.25 48.74 27.00 48.72 C 26.68 48.63 26.25 48.81 25.69 48.43 C 25.47 48.54 24.91 48.26 24.67 48.02 C 24.16 48.02 24.11 47.69 23.82 47.55 C 23.29 47.04 23.63 46.78 23.15 46.53 C 23.31 45.83 22.85 45.47 23.19 45.55 C 23.00 45.05 23.47 44.61 23.33 44.36 C 23.64 44.06 23.65 43.78 23.91 43.35 C 24.28 43.00 24.34 42.75 24.50 42.35 C 25.26 42.51 25.37 41.98 25.72 42.11 C 26.11 41.72 26.57 41.46 27.01 41.99 C 27.52 41.82 28.09 42.12 28.01 42.14 C 28.46 42.36 28.81 42.12 29.49 42.32 C 29.62 42.64 30.08 42.96 30.07 43.48 C 30.19 43.67 30.55 44.00 30.67 44.20 C 30.86 44.27 30.71 44.88 31.21 45.14 Z" fill="white" stroke-width="3.53"/>
<path d="M 29.40 45.29 C 29.56 45.38 29.14 45.20 29.37 45.42 C 29.10 45.73 29.18 45.69 29.38 45.76 C 28.99 45.82 29.02 45.48 28.89 45.90 C 29.24 46.04 29.26 45.67 28.92 45.86 C 28.84 45.81 28.93 45.68 28.88 45.81 C 28.95 45.64 28.38 45.99 28.71 45.57 C 28.51 46.11 28.54 45.58 28.65 45.70 C 28.19 45.77 28.27 45.77 28.22 45.67 C 28.11 45.42 28.32 45.30 27.97 45.38 C 27.94 45.63 27.99 45.19 28.32 44.99 C 28.12 45.49 28.47 45.01 28.20 45.25 C 28.30 45.06 28.09 44.69 27.99 45.01 C 28.06 44.98 28.36 44.90 28.32 44.56 C 28.65 44.69 28.30 44.84 28.30 44.60 C 28.49 44.46 28.87 44.89 28.77 44.87 C 28.69 44.91 29.15 44.96 29.09 44.97 C 29.05 45.01 28.87 44.74 29.32 44.90 C 29.22 45.10 29.34 44.64 29.49 45.11 C 29.02 44.71 29.22 44.82 29.45 45.01 C 29.21 45.15 29.42 45.24 29.58 45.29 Z" fill="black" stroke-width="3.95"/>
<path d="M 27.59 47.07 C 27.85 46.83 27.85 47.19 27.85 47.49 C 27.75 47.07 27.72 47.47 27.38 47.11 C 27.36 47.70 27.40 47.45 27.50 47.31 C 27.08 47.84 27.49 47.45 27.11 47.61 C 26.84 47.54 27.02 47.58 26.83 47.84 C 26.74 47.86 26.74 47.45 26.86 47.40 C 26.51 47.48 26.56 47.30 26.38 47.69 C 26.59 47.26 26.32 47.26 26.80 47.24 C 26.68 47.12 26.48 47.07 26.70 47.16 C 26.41 47.46 26.20 47.14 26.39 47.17 C 26.67 47.13 26.50 47.10 26.19 46.82 C 26.60 46.66 26.33 46.84 26.43 46.98 C 26.71 46.67 26.57 46.38 26.66 46.45 C 26.57 46.25 26.77 46.26 26.83 46.31 C 27.07 46.59 26.73 46.52 26.95 46.18 C 26.91 46.52 27.07 46.57 27.34 46.50 C 27.15 46.75 27.58 46.53 27.36 46.68 C 27.49 46.88 27.20 46.48 27.70 46.71 C 27.46 46.51 27.41 46.79 27.44 46.57 C 27.44 46.95 27.41 47.04 27.87 47.19 Z" fill="black" stroke-width="3.37"/>
<path d="M 25.73 45.31 C 25.86 45.37 26.08 45.41 25.82 45.37 C 25.99 45.52 25.97 45.39 25.63 45.38 C 25.86 45.72 25.35 45.98 25.82 45.86 C 25.48 45.61 25.26 45.71 25.55 45.64 C 25.55 45.88 25.11 45.82 25.31 45.99 C 25.30 45.78 25.06 46.16 24.79 46.00 C 25.21 45.82 24.99 45.71 24.64 45.69 C 24.89 45.47 24.86 45.72 24.81 45.90 C 24.48 45.64 24.92 45.65 24.41 45.62 C 24.83 45.51 24.54 45.58 24.73 45.54 C 24.60 45.01 24.56 44.93 24.94 45.23 C 24.95 45.33 24.73 44.81 24.95 44.85 C 24.50 44.74 25.08 44.72 25.08 44.76 C 24.90 44.62 24.86 44.56 25.12 44.83 C 25.26 44.58 24.92 44.92 25.05 44.78 C 25.05 44.93 25.52 44.98 25.30 44.94 C 25.66 44.70 25.67 44.86 25.75 45.02 C 25.57 44.65 25.93 45.02 25.67 44.78 C 25.72 44.91 25.59 45.30 25.76 45.13 C 25.99 45.44 25.79 45.37 25.64 45.24 Z" fill="black" stroke-width="3.70"/>
<path d="M 27.44 43.39 C 27.66 43.61 27.87 43.57 27.72 43.51 C 27.55 43.79 27.50 43.88 27.61 43.93 C 27.74 44.16 27.12 44.20 27.60 44.12 C 27.27 44.26 27.29 44.32 27.46 44.14 C 26.99 43.89 27.07 43.98 27.02 43.95 C 26.69 44.28 27.07 44.10 26.73 44.35 C 26.86 44.19 26.43 43.80 26.66 43.94 C 26.72 43.81 26.66 44.16 26.81 43.59 C 26.26 43.59 26.54 43.88 26.24 43.66 C 26.54 43.42 26.36 43.51 26.46 43.24 C 26.56 43.58 26.21 43.43 26.70 43.55 C 26.74 43.49 26.26 42.99 26.58 43.00 C 26.75 42.94 26.55 43.36 26.64 43.17 C 26.62 43.09 26.69 43.17 26.76 42.87 C 27.04 42.97 27.18 42.72 26.74 43.09 C 27.31 43.08 27.00 43.23 27.20 43.24 C 27.52 43.08 27.30 43.00 27.57 42.87 C 27.35 43.14 27.31 42.94 27.36 43.46 C 27.22 43.06 27.63 43.11 27.34 43.57 C 27.75 43.19 27.75 43.28 27.64 43.31 Z" fill="black" stroke-width="3.81"/>
<path d="M 71.13 36.07 C 71.09 36.40 70.84 36.98 70.65 36.84 C 69.76 37.34 69.49 37.50 68.67 37.47 C 68.07 38.20 66.72 37.94 65.81 38.26 C 64.45 38.15 63.65 37.99 62.05 38.03 C 61.06 38.02 59.40 37.77 58.05 37.49 C 56.79 37.62 55.97 37.15 54.46 36.68 C 53.20 36.33 52.17 35.87 51.18 35.76 C 49.89 35.43 48.84 34.76 48.22 34.50 C 47.65 34.13 47.01 33.88 46.82 33.08 C 46.86 32.78 46.16 32.13 46.36 32.23 C 46.15 31.69 46.80 31.15 47.50 31.37 C 48.10 30.97 48.28 30.50 49.27 30.13 C 49.70 30.24 50.74 30.38 52.14 30.31 C 53.28 29.95 54.61 30.17 55.83 30.30 C 56.82 30.44 58.44 30.28 59.31 30.46 C 60.48 30.50 61.74 30.73 62.94 31.32 C 64.63 31.84 65.50 32.18 66.63 32.18 C 67.25 33.03 68.36 32.90 68.94 33.50 C 69.79 34.21 70.19 34.37 70.81 34.92 C 71.15 35.32 71.17 35.49 71.08 36.22 Z" fill="white" stroke-width="3.57"/>
<path d="M 65.99 45.82 C 65.76 46.16 65.11 46.55 64.87 46.43 C 64.31 46.58 63.29 46.18 62.70 46.46 C 61.97 46.27 61.07 45.87 59.76 45.32 C 59.05 45.09 57.90 44.34 57.33 43.70 C 56.00 42.82 55.31 42.31 54.38 41.61 C 53.02 41.07 52.43 39.93 51.83 39.30 C 50.68 38.62 49.98 37.24 49.58 36.80 C 48.88 35.71 48.12 35.24 47.85 34.05 C 47.60 33.63 47.42 32.85 47.69 32.30 C 47.46 31.62 47.27 30.96 47.55 30.61 C 47.72 30.50 48.60 29.93 48.99 29.86 C 49.53 30.16 50.13 29.90 51.30 30.36 C 52.23 30.73 53.06 30.59 53.56 31.45 C 54.74 31.68 55.46 32.06 56.65 32.79 C 57.75 33.40 58.87 34.32 59.38 35.04 C 60.83 36.03 61.62 36.51 62.59 37.38 C 63.30 38.33 64.10 39.37 64.75 40.08 C 64.91 40.77 65.68 41.67 65.69 42.41 C 66.33 43.01 66.39 44.06 66.38 44.66 C 66.44 44.81 66.15 45.11 65.64 45.60 Z" fill="white" stroke-width="3.44"/>
<path d="M 54.17 52.20 C 53.97 52.09 53.70 52.16 53.35 52.05 C 52.85 51.26 52.41 51.02 52.15 50.69 C 51.32 49.76 51.09 49.08 50.51 48.31 C 50.10 47.60 50.07 46.67 49.55 45.45 C 49.20 44.39 49.21 43.01 48.60 41.82 C 48.60 40.95 48.54 39.92 48.31 38.40 C 48.28 37.47 47.82 36.46 47.86 35.60 C 48.30 34.29 48.43 33.89 48.15 33.07 C 48.46 32.22 48.59 31.69 48.93 31.04 C 48.62 30.64 49.45 30.64 49.70 30.19 C 50.01 30.37 50.07 30.72 50.74 31.07 C 50.91 31.34 51.39 31.15 51.92 31.99 C 52.16 32.47 52.39 33.38 52.99 34.28 C 53.36 35.60 53.57 36.20 54.10 37.24 C 54.67 38.29 55.02 39.61 54.93 40.85 C 54.98 41.87 55.57 43.09 55.72 43.96 C 55.54 45.09 55.70 46.15 55.46 47.14 C 55.47 48.39 55.95 49.40 55.73 50.16 C 55.33 50.93 55.45 51.11 54.88 51.56 C 54.75 51.66 54.68 52.33 54.50 52.06 Z" fill="white" stroke-width="3.51"/>
<path d="M 41.44 52.02 C 40.83 51.89 40.23 51.67 40.17 51.11 C 39.76 50.79 39.96 49.97 39.54 49.25 C 39.74 47.98 39.83 47.10 39.69 45.76 C 40.17 44.86 40.49 43.45 40.61 42.33 C 41.43 41.22 41.50 40.18 41.97 38.71 C 42.65 37.58 43.44 36.99 44.12 35.56 C 44.24 34.44 45.01 33.59 46.02 32.53 C 46.76 31.85 47.41 30.68 48.18 30.34 C 48.52 29.64 48.87 29.59 49.73 29.79 C 50.29 29.57 50.54 29.65 51.39 29.56 C 51.65 29.55 52.36 29.78 52.39 30.74 C 53.06 31.21 53.03 32.20 53.00 33.12 C 53.10 33.82 53.11 34.86 52.81 35.80 C 52.51 36.82 52.47 37.85 51.84 39.13 C 51.41 40.04 51.29 41.45 50.53 43.00 C 49.90 43.59 49.81 45.22 48.78 46.03 C 48.49 46.81 47.82 48.31 46.71 49.06 C 46.12 49.68 45.34 50.34 44.76 51.17 C 44.48 51.62 43.89 51.54 43.06 51.86 C 42.57 52.10 41.72 52.12 41.79 52.05 Z" fill="white" stroke-width="3.62"/>
<path d="M 34.07 43.67 C 34.10 43.61 33.63 42.89 33.69 42.61 C 33.79 42.13 34.08 41.76 34.60 41.02 C 34.56 40.59 35.84 39.82 35.99 39.03 C 36.81 38.47 37.55 37.73 38.05 36.90 C 39.02 36.45 39.74 35.80 41.06 35.33 C 41.61 34.30 42.81 34.12 43.69 33.80 C 44.29 33.30 45.21 32.80 46.04 32.13 C 47.13 31.98 47.68 31.46 48.67 31.03 C 49.48 31.26 50.24 31.11 50.67 31.37 C 50.95 31.01 51.09 31.30 51.49 31.63 C 51.57 32.18 51.47 32.08 51.28 32.53 C 51.22 33.16 51.01 33.91 50.70 34.65 C 50.21 35.06 49.86 35.79 49.21 36.08 C 48.49 36.75 47.54 37.59 47.09 38.26 C 46.42 38.79 45.52 39.56 44.71 40.19 C 43.42 40.92 42.81 41.30 41.51 41.84 C 40.53 42.66 40.07 42.75 38.93 43.45 C 38.43 43.55 37.23 43.97 36.59 43.88 C 36.24 43.78 35.58 44.30 34.83 44.33 C 34.90 44.02 34.02 44.02 33.91 43.49 Z" fill="white" stroke-width="3.38"/>
<path d="M 28.97 33.03 C 29.45 32.97 29.52 32.46 29.61 32.64 C 30.53 32.03 30.49 31.88 31.28 31.83 C 32.01 31.29 33.14 31.02 34.14 30.78 C 34.61 30.85 36.05 30.40 37.04 30.46 C 38.46 30.40 39.64 30.13 41.24 30.02 C 41.96 29.79 43.57 29.93 44.35 30.32 C 45.68 30.53 46.69 30.31 47.64 30.32 C 48.66 30.78 49.86 30.91 50.73 31.18 C 51.33 30.90 51.96 31.56 52.14 31.97 C 52.62 31.82 53.01 32.19 53.15 32.35 C 53.03 32.64 52.80 32.85 52.87 33.44 C 52.56 33.90 51.88 33.97 51.24 34.15 C 50.34 34.31 49.48 34.86 48.39 34.76 C 46.98 35.25 45.78 35.24 44.78 35.33 C 43.35 35.28 42.20 35.54 40.97 35.45 C 39.91 35.96 38.36 35.47 37.22 35.41 C 36.46 35.31 35.44 35.38 33.94 35.22 C 33.12 35.05 32.19 35.30 30.97 34.90 C 30.33 34.41 29.87 34.60 29.21 34.17 C 29.23 33.81 28.82 33.37 29.40 33.05 Z" fill="white" stroke-width="3.69"/>
<path d="M 31.57 22.78 C 32.00 22.50 32.17 22.42 32.80 22.13 C 33.19 22.17 33.80 22.02 34.53 22.03 C 35.64 22.44 36.23 22.09 37.51 22.63 C 38.49 23.14 39.53 23.22 40.25 23.86 C 41.52 24.12 42.54 25.00 43.91 25.38 C 44.54 25.74 45.87 26.36 47.06 27.50 C 47.52 27.64 48.44 28.32 49.12 29.19 C 50.19 29.83 51.15 30.42 51.62 31.26 C 51.77 31.63 51.96 32.53 52.26 32.84 C 52.54 33.39 52.50 33.27 52.10 33.60 C 52.17 34.11 52.15 34.57 51.51 34.48 C 50.82 34.84 50.12 34.53 49.62 34.43 C 48.77 34.23 48.00 34.39 46.67 34.16 C 46.13 33.82 44.74 33.53 43.72 33.00 C 42.84 32.43 41.38 31.85 40.64 31.36 C 39.24 30.51 38.41 29.93 37.37 29.33 C 36.17 28.65 35.27 28.46 34.43 27.44 C 34.04 26.87 33.41 26.34 32.93 25.47 C 32.41 24.93 32.23 24.64 32.01 24.35 C 31.65 23.60 31.81 22.80 31.74 22.96 Z" fill="white" stroke-width="3.35"/>
<path d="M 39.78 13.64 C 39.93 13.07 40.48 13.53 40.72 13.64 C 41.29 13.86 42.11 13.96 42.86 14.43 C 43.39 15.13 44.17 16.20 44.29 16.85 C 45.36 17.82 45.67 18.80 46.93 19.58 C 47.49 21.02 48.23 22.07 48.71 22.87 C 49.47 24.39 49.88 25.58 50.60 27.03 C 50.65 27.94 51.46 29.11 51.71 30.09 C 51.94 31.08 52.24 32.40 52.56 33.14 C 52.62 33.92 52.63 34.60 52.58 35.05 C 52.54 35.75 52.07 36.36 52.17 36.34 C 51.85 36.74 51.49 36.18 50.60 36.21 C 50.42 35.70 49.33 35.42 48.78 34.82 C 48.46 34.01 47.83 33.81 47.22 32.92 C 46.12 32.23 45.75 30.97 45.06 29.79 C 44.06 28.75 43.64 27.31 42.64 26.34 C 42.53 24.98 41.77 23.94 41.00 22.62 C 40.46 21.69 40.49 20.31 40.02 19.13 C 39.42 18.51 39.10 17.37 39.30 16.33 C 39.31 15.52 39.16 14.82 39.37 14.24 C 39.54 13.70 39.21 13.47 39.45 13.22 Z" fill="white" stroke-width="3.65"/>
<path d="M 52.38 13.90 C 52.33 13.57 52.63 14.18 53.04 14.28 C 53.27 14.82 53.86 15.44 53.58 16.00 C 53.69 16.12 54.02 16.96 54.16 18.20 C 54.23 18.72 54.24 19.94 54.26 20.96 C 54.36 22.12 54.05 23.18 53.97 23.82 C 54.12 25.15 53.57 26.35 53.65 26.98 C 52.92 27.81 52.95 29.03 52.78 29.93 C 52.54 30.54 52.03 31.28 51.99 32.18 C 51.35 32.89 51.40 33.12 50.92 32.98 C 50.28 33.37 50.38 33.56 49.81 33.52 C 49.76 33.45 49.17 33.51 49.20 33.38 C 48.55 32.70 48.60 32.06 48.31 31.32 C 48.07 30.91 48.37 29.92 48.03 29.16 C 47.77 28.39 48.06 27.40 48.05 26.44 C 47.90 25.48 47.82 24.13 47.95 23.52 C 48.58 22.09 48.48 21.44 49.02 20.27 C 49.31 19.31 49.32 18.68 49.29 17.64 C 49.79 16.81 49.89 16.21 50.24 15.49 C 50.86 15.03 51.31 14.70 51.56 14.18 C 51.73 14.17 52.00 13.42 52.52 13.91 Z" fill="white" stroke-width="3.93"/>
<path d="M 63.61 16.79 C 63.72 17.16 64.00 17.52 64.14 18.24 C 63.90 18.70 63.97 19.33 63.35 20.07 C 63.46 20.65 62.71 21.18 62.21 22.24 C 61.63 23.07 61.42 24.13 60.70 24.96 C 60.05 26.13 59.24 27.13 58.26 28.07 C 57.24 28.98 56.37 29.50 56.07 30.84 C 55.08 31.55 54.32 32.30 53.29 33.19 C 52.37 33.44 51.87 33.86 51.01 34.40 C 50.52 34.55 49.64 34.95 49.05 35.39 C 48.94 35.25 48.76 34.63 48.51 34.80 C 47.85 34.41 47.76 34.25 47.47 34.02 C 47.58 33.54 47.85 32.58 47.87 31.89 C 48.60 31.31 48.99 30.05 49.42 29.18 C 49.88 28.31 50.38 27.77 51.34 26.65 C 51.83 25.89 52.82 24.52 53.51 23.83 C 54.42 22.79 55.29 21.79 56.07 20.95 C 56.50 20.13 57.75 19.60 58.44 18.72 C 59.18 18.36 60.33 17.82 60.70 17.47 C 61.57 16.98 61.79 17.14 62.26 17.06 C 63.12 16.58 63.52 16.49 63.51 16.92 Z" fill="white" stroke-width="3.68"/>
<path d="M 67.80 26.56 C 67.95 27.26 68.64 27.33 68.22 27.87 C 68.01 28.16 67.54 28.88 66.96 29.02 C 66.25 29.40 65.49 30.20 65.14 30.55 C 64.25 30.96 63.70 31.77 62.85 32.09 C 61.62 32.60 60.48 33.03 59.57 32.85 C 58.33 33.35 57.83 33.84 56.54 33.90 C 55.49 33.97 54.46 34.17 53.55 34.37 C 53.14 34.20 52.33 34.20 51.70 33.97 C 50.81 33.88 50.00 33.91 49.96 33.99 C 49.26 33.36 48.99 33.20 48.92 33.15 C 48.80 32.45 48.78 31.97 49.38 31.87 C 49.06 31.52 49.56 30.97 50.33 30.42 C 50.58 29.93 51.11 29.82 52.29 29.18 C 52.92 28.47 53.66 28.16 54.39 27.56 C 55.30 27.13 56.68 27.24 57.65 26.61 C 58.30 26.27 59.47 26.01 60.71 25.80 C 61.68 25.33 62.52 25.53 63.43 25.48 C 64.11 25.47 64.84 25.06 65.75 25.14 C 66.25 25.75 66.52 25.92 67.30 26.13 C 67.52 26.01 67.82 26.58 67.84 26.59 Z" fill="white" stroke-width="3.70"/>
<path d="M 54.74 32.56 C 54.79 33.37 55.27 33.58 54.71 34.30 C 54.94 34.40 54.22 34.85 53.90 35.46 C 54.02 35.36 53.44 35.87 53.12 36.04 C 52.78 36.24 52.07 36.43 51.39 36.50 C 50.77 36.65 50.37 36.90 50.14 37.14 C 49.44 36.87 48.83 37.05 48.34 36.47 C 47.73 36.57 47.63 36.41 46.98 36.34 C 46.94 36.04 46.25 35.72 46.08 35.56 C 45.89 34.70 45.54 34.57 45.34 33.74 C 45.20 33.57 45.03 32.91 45.08 32.55 C 45.08 32.05 45.39 31.77 45.22 31.43 C 45.64 30.80 45.76 30.68 45.76 30.20 C 46.14 29.53 46.66 29.33 46.85 28.86 C 47.65 28.86 48.12 28.79 48.60 28.45 C 48.75 28.66 49.38 28.39 49.83 28.21 C 50.75 28.46 50.94 28.61 51.42 28.53 C 52.17 28.53 52.61 28.92 53.02 29.24 C 53.30 29.10 53.93 29.65 54.03 30.18 C 54.44 30.44 54.80 30.91 54.61 31.39 C 55.05 31.69 54.87 32.10 54.90 32.57 Z" fill="white" stroke-width="3.50"/>
<path d="M 52.61 32.62 C 53.08 32.79 52.65 32.84 52.54 32.97 C 52.79 32.75 52.76 32.83 52.84 33.06 C 52.69 33.11 52.80 33.35 52.55 33.05 C 52.43 33.39 52.50 33.06 52.45 33.45 C 52.10 33.35 52.32 32.93 52.47 33.41 C 52.07 33.44 52.37 32.94 51.90 33.27 C 51.74 33.11 51.80 33.07 51.72 33.31 C 51.73 32.86 51.75 32.85 51.65 33.22 C 51.70 33.17 51.81 32.94 51.46 33.03 C 51.53 32.93 51.78 32.48 51.86 32.73 C 51.54 32.42 51.71 32.79 51.43 32.69 C 51.63 32.16 51.88 32.32 51.95 32.53 C 52.02 32.15 51.73 31.89 51.75 32.19 C 51.74 32.21 52.19 32.01 52.05 32.26 C 52.35 31.91 51.97 31.83 51.94 32.29 C 52.22 32.13 52.22 31.81 52.21 32.26 C 52.65 31.80 52.26 31.90 52.70 32.20 C 52.72 32.07 52.63 32.35 52.93 32.41 C 52.85 32.41 52.47 32.47 53.03 32.47 C 52.73 32.48 52.96 32.73 52.79 32.51 Z" fill="black" stroke-width="3.82"/>
<path d="M 50.40 34.95 C 50.31 34.79 50.46 35.23 50.72 35.17 C 50.80 34.80 50.52 35.27 50.66 34.91 C 50.35 35.46 50.12 35.07 50.16 35.17 C 50.52 35.12 50.36 35.46 50.45 35.27 C 50.12 35.24 49.95 35.64 49.92 35.32 C 49.75 35.52 50.01 35.31 49.55 35.11 C 49.62 35.32 49.63 35.62 49.83 35.26 C 49.52 35.39 49.53 34.99 49.78 35.15 C 49.74 35.27 49.31 35.10 49.29 35.28 C 49.26 34.97 49.57 34.72 49.68 34.60 C 49.18 34.62 49.62 34.53 49.64 34.53 C 49.43 34.74 49.22 34.59 49.29 34.31 C 49.32 34.42 49.57 34.21 49.90 34.53 C 49.85 34.24 49.95 34.33 49.95 34.04 C 50.15 34.06 49.76 34.05 49.83 33.99 C 50.28 34.03 50.33 34.32 50.47 34.08 C 50.35 34.37 50.08 34.62 50.49 34.55 C 50.26 34.32 50.72 34.56 50.60 34.56 C 50.26 34.32 50.39 34.84 50.33 34.51 C 50.79 34.65 50.41 34.49 50.74 35.07 Z" fill="black" stroke-width="4.02"/>
<path d="M 48.52 32.81 C 48.54 32.50 48.37 32.74 48.61 32.99 C 48.27 33.16 48.37 32.92 48.56 32.88 C 48.01 33.31 47.94 32.86 48.35 33.39 C 48.05 33.37 47.97 33.33 48.16 33.14 C 47.80 33.43 47.63 33.36 47.91 33.49 C 47.89 33.24 47.45 33.08 47.36 33.20 C 47.64 33.05 47.38 33.40 47.20 33.24 C 47.19 33.17 47.23 32.97 47.49 33.11 C 47.39 32.81 47.03 33.04 46.96 32.78 C 46.92 33.00 47.06 32.70 47.25 32.52 C 47.38 32.54 47.40 32.39 47.02 32.28 C 47.29 32.21 47.21 32.30 47.27 32.23 C 47.42 32.32 47.40 32.20 47.48 32.03 C 47.40 31.88 47.69 31.90 47.42 31.92 C 47.85 32.06 47.91 31.76 47.77 31.76 C 48.00 31.86 48.03 32.30 47.76 32.15 C 47.99 32.32 48.01 32.14 48.00 32.18 C 48.29 32.13 48.10 32.37 48.07 32.44 C 48.20 32.20 48.14 32.37 48.08 32.55 C 48.45 32.34 48.67 32.43 48.30 32.56 Z" fill="black" stroke-width="3.35"/>
<path d="M 50.74 30.14 C 50.84 30.56 50.68 30.62 50.62 30.32 C 50.39 30.89 50.22 30.80 50.61 30.78 C 50.19 30.57 50.58 31.00 50.19 30.77 C 50.15 30.66 50.41 30.87 50.35 31.25 C 50.02 31.23 50.05 31.14 50.19 31.00 C 49.73 30.93 49.78 31.26 49.59 31.04 C 49.84 31.16 49.54 31.13 49.90 31.04 C 49.47 30.82 49.58 30.75 49.63 30.51 C 49.74 30.94 49.65 30.68 49.47 30.79 C 49.33 30.51 49.18 30.27 49.45 30.40 C 49.36 30.57 49.36 30.50 49.21 30.44 C 49.65 30.32 49.26 29.91 49.63 30.27 C 49.74 29.76 49.46 30.26 49.79 30.20 C 49.41 29.71 49.94 30.01 49.90 29.65 C 50.15 29.99 49.87 29.56 50.09 29.62 C 49.88 29.72 50.20 29.78 50.26 30.04 C 50.49 29.58 50.23 29.98 50.53 29.79 C 50.12 30.03 50.64 29.97 50.34 30.00 C 50.72 30.04 50.43 29.89 50.50 30.09 C 50.36 30.26 50.30 30.61 50.60 30.51 Z" fill="black" stroke-width="3.96"/>
<path d="M 89.91 54.93 C 89.65 54.76 89.38 55.10 89.37 55.45 C 89.18 55.30 88.54 55.55 88.12 55.37 C 87.92 55.29 86.72 55.41 86.34 55.26 C 85.37 55.10 84.56 55.42 83.70 55.26 C 83.05 55.14 82.25 54.77 81.22 54.61 C 80.87 54.13 79.78 53.91 79.05 53.49 C 78.29 53.45 77.45 52.94 76.75 52.41 C 75.98 52.44 75.39 52.03 75.22 51.68 C 74.46 51.45 74.60 50.90 74.16 50.66 C 74.15 50.82 73.60 50.24 73.94 49.92 C 74.16 50.16 74.13 49.83 74.76 49.67 C 75.26 49.69 75.19 49.46 75.78 49.24 C 76.28 49.65 76.97 49.45 77.43 49.77 C 78.32 49.60 79.41 50.01 80.11 50.20 C 80.75 50.37 81.53 50.27 82.28 50.59 C 83.23 50.76 83.98 51.43 84.89 51.23 C 85.90 51.75 86.66 52.27 86.77 52.56 C 87.87 52.66 88.24 52.71 88.74 53.21 C 89.28 53.61 89.11 53.82 89.75 54.28 C 89.76 54.49 90.12 54.50 89.93 54.55 Z" fill="white" stroke-width="3.96"/>
<path d="M 86.74 60.46 C 86.62 60.49 86.29 60.49 85.84 60.74 C 85.61 60.77 85.31 60.67 84.54 60.36 C 83.76 60.19 83.29 60.23 82.87 59.61 C 82.12 59.54 81.27 58.88 80.56 58.29 C 80.02 57.70 79.78 57.58 79.11 56.69 C 78.22 56.05 77.94 55.73 77.28 54.82 C 76.51 54.41 75.98 53.68 75.30 53.34 C 75.24 52.50 75.19 51.73 74.50 51.36 C 74.58 50.85 74.59 50.34 74.32 50.00 C 74.60 49.69 74.50 49.57 74.98 49.26 C 74.58 49.20 75.09 49.32 75.33 49.22 C 75.56 49.02 76.47 49.05 76.91 48.99 C 76.97 49.18 77.78 49.87 78.51 50.09 C 79.14 50.56 79.75 50.68 80.41 51.47 C 81.00 51.59 81.74 52.68 82.21 53.16 C 82.83 53.45 83.63 54.42 84.15 54.69 C 84.77 55.14 85.18 55.74 85.31 56.54 C 85.84 57.26 86.34 58.00 86.21 58.20 C 86.65 58.73 86.74 59.48 86.95 59.53 C 87.23 60.11 86.87 60.55 86.72 60.70 Z" fill="white" stroke-width="4.02"/>
<path d="M 80.07 63.62 C 79.53 63.97 79.58 64.18 79.32 63.68 C 78.99 63.83 78.50 63.58 78.54 63.03 C 78.18 62.53 77.63 62.15 77.22 61.59 C 77.34 60.62 76.64 59.94 76.45 59.42 C 76.23 58.46 76.22 57.96 76.11 57.27 C 75.87 56.38 75.56 55.74 75.46 54.63 C 75.39 54.18 75.13 53.57 75.08 52.49 C 75.21 52.04 75.04 51.06 75.12 50.95 C 75.11 50.53 75.07 49.85 75.38 49.55 C 75.45 49.35 75.62 49.49 75.87 49.32 C 75.74 49.50 76.42 49.08 76.54 49.08 C 76.45 49.49 76.90 50.05 77.32 50.55 C 77.27 51.05 77.96 51.05 77.90 51.46 C 78.53 52.42 78.46 53.00 78.70 53.80 C 78.97 54.34 79.37 55.02 79.60 56.23 C 79.73 56.63 79.93 57.47 79.97 58.39 C 80.49 59.09 80.47 59.99 80.35 60.29 C 80.69 61.09 80.74 61.63 80.79 62.05 C 80.58 62.62 80.22 63.29 80.09 63.50 C 80.11 63.95 80.16 63.73 79.90 63.73 Z" fill="white" stroke-width="3.57"/>
<path d="M 72.26 64.58 C 72.07 65.00 71.84 64.70 71.37 64.05 C 71.18 63.64 70.86 63.25 70.71 62.56 C 70.95 62.16 70.95 61.56 70.68 60.53 C 71.10 59.76 71.21 58.87 71.17 58.45 C 71.32 57.54 71.25 56.46 71.82 55.98 C 71.72 55.19 72.47 53.91 72.48 53.60 C 72.59 52.43 73.04 51.66 73.31 51.47 C 73.76 50.31 74.34 49.79 74.57 49.26 C 75.23 48.98 75.21 48.62 75.61 48.97 C 75.95 48.59 76.46 48.15 76.71 48.30 C 77.11 48.80 77.24 48.87 77.85 49.11 C 77.82 49.68 78.39 50.05 78.21 50.19 C 78.63 50.69 78.63 51.72 78.09 52.41 C 78.26 53.19 77.92 53.96 78.30 55.04 C 77.62 55.53 77.56 56.64 77.63 57.58 C 77.52 58.19 76.93 58.94 76.77 60.22 C 76.29 60.57 75.95 61.27 75.48 62.16 C 75.47 62.53 74.84 62.89 74.28 63.32 C 73.90 63.81 73.50 64.58 73.50 64.64 C 72.65 64.51 72.43 64.73 72.36 64.99 Z" fill="white" stroke-width="3.38"/>
<path d="M 65.91 58.11 C 65.29 57.92 65.23 58.01 65.27 57.52 C 65.31 57.07 65.09 56.90 65.72 56.01 C 65.59 55.75 66.42 55.21 66.84 54.86 C 67.31 54.49 67.51 53.55 67.91 53.37 C 68.52 53.08 68.79 52.41 69.80 51.75 C 70.14 51.30 71.18 51.03 71.32 50.65 C 71.98 50.53 72.73 50.31 73.63 49.87 C 74.15 50.03 74.62 49.72 74.95 49.71 C 75.67 49.22 75.82 49.64 76.66 49.51 C 76.73 49.89 77.05 49.89 77.09 50.15 C 77.31 50.63 77.47 50.55 77.30 51.14 C 77.66 51.08 77.43 51.89 77.11 52.33 C 77.14 52.48 76.28 53.42 76.33 53.64 C 75.43 54.27 75.16 55.04 74.47 55.25 C 74.03 55.83 73.62 56.38 73.20 56.52 C 72.65 57.12 71.55 57.58 71.12 57.59 C 70.31 57.92 70.00 58.57 69.23 58.76 C 68.81 58.75 68.10 58.78 67.44 58.99 C 67.27 58.84 66.60 59.01 66.49 59.01 C 66.05 58.97 66.08 58.33 65.85 58.23 Z" fill="white" stroke-width="3.48"/>
<path d="M 61.89 50.86 C 61.93 50.37 62.44 50.44 62.58 49.94 C 62.57 49.57 62.99 49.41 63.23 49.06 C 63.54 49.09 64.87 48.92 65.39 48.58 C 66.06 48.76 67.04 48.83 67.69 48.80 C 68.40 48.16 69.60 48.26 70.29 48.46 C 71.20 48.11 72.25 48.72 72.91 48.36 C 73.50 48.46 74.43 48.62 75.31 49.00 C 75.77 48.83 76.20 49.23 77.09 49.40 C 77.62 49.41 77.92 49.96 77.79 50.28 C 78.07 50.53 78.48 50.40 78.43 50.84 C 78.52 51.08 78.48 51.50 77.80 51.81 C 77.70 51.65 77.32 52.13 77.23 52.09 C 76.87 52.55 75.85 52.75 75.06 52.85 C 74.23 52.72 73.32 52.71 72.73 52.80 C 71.80 53.19 71.21 53.07 70.13 53.07 C 69.40 53.41 68.21 53.05 67.36 53.07 C 66.75 52.81 65.88 53.14 65.21 52.76 C 64.57 52.42 64.09 52.53 63.71 52.19 C 62.97 51.70 62.64 51.66 62.31 51.28 C 62.16 51.27 62.04 51.14 61.74 50.99 Z" fill="white" stroke-width="3.35"/>
<path d="M 65.14 43.71 C 65.15 43.56 65.67 43.34 65.88 43.00 C 66.30 42.96 66.62 42.86 67.01 42.73 C 67.76 42.94 68.03 43.17 68.86 43.52 C 69.24 43.41 70.11 43.68 70.52 44.21 C 71.15 44.71 72.20 44.92 72.71 45.29 C 73.58 45.33 73.75 46.03 74.39 46.32 C 75.19 47.19 75.48 47.62 76.20 48.12 C 76.69 48.25 76.59 49.00 77.26 49.52 C 77.14 49.98 77.74 50.39 77.75 50.71 C 77.81 50.92 77.24 51.26 77.09 51.39 C 77.05 51.53 76.98 51.95 76.59 52.00 C 76.22 52.48 76.19 52.56 75.61 52.48 C 74.83 52.25 74.17 52.12 73.46 51.69 C 72.85 51.69 72.52 51.37 71.89 51.41 C 71.02 50.56 70.24 50.20 69.49 49.69 C 68.82 49.66 68.68 48.99 67.69 48.44 C 67.51 48.16 66.74 47.81 66.09 46.89 C 65.79 46.61 65.36 45.83 64.86 45.68 C 64.98 45.14 64.99 44.75 65.14 44.36 C 65.07 44.36 64.96 43.82 65.03 43.44 Z" fill="white" stroke-width="3.63"/>
<path d="M 70.60 38.94 C 70.70 38.51 71.39 38.95 71.78 39.13 C 71.82 39.16 72.13 38.79 72.53 39.55 C 73.23 39.52 73.78 40.02 74.34 40.94 C 74.64 40.87 74.67 41.91 75.45 42.15 C 75.62 42.87 76.13 43.55 76.15 44.08 C 76.47 44.89 76.90 45.76 76.84 46.10 C 77.55 46.83 77.60 47.74 77.31 48.29 C 77.42 48.58 77.52 49.66 77.87 50.02 C 77.62 50.56 77.58 50.71 77.60 50.89 C 77.41 51.78 76.92 51.86 76.82 52.03 C 76.26 52.16 75.91 51.63 75.78 51.76 C 75.15 51.66 75.02 51.79 74.50 51.61 C 73.89 51.12 73.85 50.43 73.53 50.27 C 72.66 49.85 72.28 49.34 71.86 48.39 C 71.81 47.90 71.52 47.51 70.69 46.87 C 70.37 45.74 70.51 45.42 70.39 44.46 C 70.25 43.71 69.75 43.22 70.08 42.81 C 69.82 42.22 69.60 41.25 69.41 40.91 C 69.87 40.35 69.75 39.92 70.12 39.56 C 70.39 39.53 70.08 39.13 70.52 39.10 Z" fill="white" stroke-width="3.57"/>
<path d="M 78.13 36.82 C 78.66 37.00 78.77 37.02 78.86 37.85 C 78.69 37.84 78.82 38.12 79.43 38.93 C 79.45 39.27 79.14 40.10 79.19 40.66 C 79.18 41.36 79.30 42.19 79.65 42.55 C 79.48 43.74 79.11 44.25 79.04 45.12 C 79.03 45.75 79.00 46.71 78.71 47.55 C 78.25 48.41 78.14 49.11 78.13 49.74 C 77.97 50.19 77.50 50.53 77.63 51.41 C 77.15 51.50 76.99 51.70 76.38 52.10 C 76.34 52.70 76.20 52.57 75.96 52.87 C 75.85 52.73 75.69 52.29 75.61 52.33 C 75.22 51.52 75.32 51.52 75.01 50.62 C 74.78 50.44 74.51 50.11 74.62 49.31 C 74.84 48.77 74.61 47.70 74.90 46.76 C 74.77 46.10 75.17 45.30 75.28 44.61 C 74.99 43.67 75.03 42.88 75.49 41.90 C 75.55 41.41 76.09 40.59 75.89 40.01 C 76.54 39.37 76.32 38.79 76.60 38.25 C 77.06 37.65 77.15 37.42 77.23 37.49 C 77.44 37.29 78.16 36.81 78.01 37.19 Z" fill="white" stroke-width="3.50"/>
<path d="M 84.86 39.91 C 85.28 40.36 85.04 40.64 85.41 40.64 C 85.17 41.04 85.55 41.72 85.31 41.83 C 85.02 42.58 84.59 43.11 84.19 43.40 C 84.06 44.18 83.48 44.98 83.18 45.58 C 82.96 46.29 82.32 47.23 81.80 47.85 C 81.19 48.35 80.66 49.03 80.31 49.51 C 79.85 50.32 78.92 50.28 78.73 50.96 C 77.70 51.54 77.38 52.07 77.11 51.94 C 76.51 52.08 76.38 52.68 75.68 52.55 C 75.58 52.52 75.06 52.61 75.01 52.09 C 74.69 52.18 74.50 52.03 74.47 51.72 C 74.73 51.43 74.80 50.54 74.68 50.29 C 74.75 49.58 75.39 49.01 75.51 48.52 C 75.49 48.07 76.33 47.38 76.83 46.65 C 77.03 46.17 77.78 45.42 78.31 44.94 C 78.85 44.07 79.17 43.30 79.60 43.02 C 80.14 41.97 81.23 41.62 81.37 41.17 C 82.27 40.69 82.65 40.47 83.06 40.48 C 83.36 39.98 83.89 39.99 84.28 39.76 C 84.67 39.81 84.58 39.91 84.94 39.97 Z" fill="white" stroke-width="3.79"/>
<path d="M 90.30 46.80 C 90.46 46.66 90.36 47.41 90.08 47.34 C 89.92 47.80 89.25 47.97 89.07 48.64 C 88.40 48.79 87.92 49.45 87.43 49.42 C 86.58 49.96 86.01 50.39 85.32 50.31 C 84.47 50.89 83.45 51.31 82.63 51.09 C 81.71 51.60 81.16 51.70 79.91 51.84 C 79.22 52.11 78.19 52.36 77.48 52.49 C 77.18 52.47 76.45 52.09 75.79 52.47 C 75.41 52.33 74.60 52.55 74.06 52.41 C 73.81 51.89 73.41 51.73 73.73 51.38 C 73.46 51.41 73.80 51.15 73.90 50.49 C 74.05 50.49 74.23 49.85 75.09 49.98 C 75.26 49.64 75.71 49.26 76.51 48.85 C 77.18 48.47 77.88 47.80 78.84 47.79 C 79.50 47.27 80.70 47.29 81.41 47.11 C 82.28 46.54 83.07 46.65 84.14 46.09 C 84.84 46.14 85.62 46.17 86.46 46.14 C 87.30 46.02 87.70 45.96 87.91 45.93 C 88.71 45.78 89.15 45.79 89.30 46.24 C 90.01 46.30 90.22 46.47 90.40 46.51 Z" fill="white" stroke-width="4.03"/>
<path d="M 79.43 50.67 C 79.75 51.17 79.57 51.17 79.47 51.57 C 79.21 51.82 79.15 52.40 78.66 52.50 C 78.63 52.59 78.21 52.84 78.46 53.49 C 77.89 53.44 77.27 53.16 77.07 53.32 C 77.18 53.68 76.73 53.71 76.42 53.58 C 75.98 53.51 75.69 53.45 75.01 53.84 C 75.09 53.49 74.22 53.42 74.28 53.39 C 73.74 53.04 73.79 52.56 73.35 52.37 C 73.44 52.34 72.93 52.18 72.85 51.71 C 72.73 51.30 73.10 51.01 72.75 50.52 C 72.58 50.50 72.99 49.87 73.16 50.11 C 72.91 49.84 73.52 49.43 73.50 49.27 C 73.88 48.83 74.17 48.79 74.18 48.34 C 74.45 48.55 74.64 47.97 75.47 48.08 C 75.52 48.24 75.85 48.18 76.25 47.66 C 76.37 48.10 77.14 48.17 77.12 47.94 C 77.63 48.03 78.01 48.47 78.36 48.60 C 78.19 48.53 78.41 48.82 78.68 49.06 C 79.13 49.21 79.49 49.40 79.15 49.96 C 79.44 50.39 79.82 50.28 79.55 50.69 Z" fill="white" stroke-width="3.54"/>
<path d="M 49.05 96.99 Q 63.82 98.48 74.84 85.98 Q 60.29 83.77 48.93 96.78 Z" fill="white" stroke-width="3.50"/>
</svg>
