<svg xmlns="http://www.w3.org/2000/svg" viewBox="0 0 100 120" fill="none" stroke="#000" stroke-linecap="round" stroke-linejoin="round">
<path d="M 50.20 108.11 C 46.26 89.28 35.44 55.63 49.94 41.64" fill="none" stroke-width="3.47"/>
<path d="M 47.40 93.36 Q 61.68 93.65 73.59 81.25 Q 59.13 81.32 47.40 93.29 Z" fill="white" stroke-width="3.36"/>
<path d="M 47.63 93.80 Q 59.33 85.92 73.65 81.10" fill="none" stroke-width="2.23"/>
<path d="M 47.49 81.98 Q 39.80 67.76 20.37 64.14 Q 28.57 78.47 47.78 81.92 Z" fill="white" stroke-width="3.39"/>
<path d="M 47.24 70.39 Q 62.58 70.66 74.79 58.43 Q 60.55 58.64 47.46 70.58 Z" fill="white" stroke-width="3.75"/>
<path d="M 47.57 70.20 Q 59.78 63.57 74.91 58.65" fill="none" stroke-width="2.09"/>
<path d="M 47.39 58.64 Q 40.76 47.38 25.49 46.90 Q 32.42 58.41 47.51 59.08 Z" fill="white" stroke-width="3.33"/>
<path d="M 77.82 47.02 C 78.02 47.77 77.54 48.23 76.97 48.84 C 76.22 49.12 75.25 49.47 74.44 50.06 C 73.42 50.22 72.49 50.72 70.88 50.42 C 69.70 50.53 67.96 51.01 66.17 50.82 C 64.98 50.40 63.19 50.39 61.11 50.12 C 59.70 49.38 58.35 49.29 56.59 49.01 C 55.36 48.47 53.83 47.68 52.61 47.40 C 51.33 46.58 49.99 46.35 49.37 45.69 C 48.52 44.76 47.37 44.29 47.37 43.43 C 46.68 43.17 47.16 42.17 46.70 41.72 C 47.34 41.39 47.08 40.54 47.91 40.07 C 48.37 39.58 49.30 39.59 50.21 38.85 C 51.29 38.60 52.89 38.76 53.90 38.45 C 55.24 38.35 56.78 38.08 58.32 38.47 C 59.96 38.24 61.73 38.91 63.14 38.92 C 64.83 39.42 66.46 39.68 68.27 40.39 C 69.62 40.65 71.22 40.77 72.59 41.56 C 73.75 41.94 74.68 42.69 75.56 43.59 C 75.93 43.82 76.61 44.81 77.28 45.43 C 77.53 46.02 77.92 46.88 77.78 47.02 Z" fill="white" stroke-width="4.06"/>
<path d="M 64.84 68.74 C 64.00 68.96 63.25 68.78 62.94 68.56 C 61.70 68.12 61.47 68.36 60.27 67.57 C 59.49 66.95 58.52 65.36 57.43 64.16 C 56.21 63.00 54.95 61.99 54.40 60.36 C 53.49 59.19 52.27 57.41 51.51 56.01 C 50.59 54.15 49.59 52.96 48.80 51.34 C 48.50 49.63 48.05 48.19 47.25 46.44 C 46.80 45.16 46.80 43.39 46.17 42.35 C 46.26 41.16 46.37 39.86 46.34 39.07 C 46.38 38.66 46.85 38.19 47.33 37.73 C 48.33 37.92 48.88 37.36 49.45 37.41 C 49.99 37.71 50.86 38.30 52.13 39.00 C 52.98 39.92 53.66 40.79 54.65 41.96 C 55.90 43.28 56.96 44.68 58.26 46.02 C 58.93 47.60 59.88 49.05 60.79 50.37 C 61.65 52.14 62.48 54.16 63.61 55.69 C 63.83 57.01 64.66 58.70 65.07 59.81 C 65.20 61.55 65.45 62.68 65.80 63.77 C 65.77 65.13 66.02 66.00 65.50 66.81 C 65.28 67.97 65.21 68.41 64.74 68.61 Z" fill="white" stroke-width="3.94"/>
<path d="M 43.11 72.42 C 42.86 71.86 42.33 71.36 42.23 70.73 C 41.83 70.02 41.88 69.29 41.84 68.20 C 41.54 67.33 41.71 65.77 41.98 64.29 C 41.77 62.85 41.81 60.86 42.23 59.41 C 42.43 57.22 42.69 55.40 43.50 53.47 C 43.71 51.98 44.26 49.94 44.75 48.20 C 45.17 46.36 45.80 44.95 46.29 43.78 C 46.76 41.84 47.56 40.34 48.06 39.42 C 49.05 38.58 49.40 37.66 49.82 36.95 C 50.31 36.52 50.86 37.34 51.25 37.06 C 51.28 37.66 51.66 37.39 51.99 37.95 C 52.66 38.95 52.89 39.33 52.81 40.87 C 52.60 41.56 52.58 43.31 52.80 45.18 C 52.27 46.43 52.57 48.27 51.97 50.19 C 52.05 51.78 51.22 53.88 51.13 55.64 C 50.76 57.49 50.23 59.27 49.44 60.79 C 49.40 62.59 48.52 64.40 48.02 65.70 C 47.42 67.29 46.91 68.55 46.40 69.51 C 45.79 70.41 45.01 71.11 44.80 71.70 C 43.81 72.05 43.50 72.18 42.97 72.35 Z" fill="white" stroke-width="3.82"/>
<path d="M 24.82 59.57 C 24.96 58.79 24.94 58.03 25.20 57.44 C 25.46 56.66 25.97 55.93 26.17 54.60 C 26.89 54.07 28.17 52.90 28.96 51.64 C 30.14 50.80 31.40 49.55 32.10 48.62 C 33.54 47.24 35.48 46.28 36.96 45.15 C 38.13 44.31 40.02 43.11 41.39 42.40 C 42.95 41.61 44.28 40.93 45.70 40.49 C 47.12 39.66 48.05 39.57 49.39 39.33 C 50.25 38.66 51.62 38.90 52.48 38.48 C 53.51 38.43 53.98 38.66 54.50 39.07 C 54.64 39.68 54.27 40.83 54.12 41.51 C 53.73 42.29 53.71 43.21 52.72 43.80 C 51.95 44.91 50.87 46.03 50.06 47.26 C 49.42 48.21 48.30 49.25 46.83 50.48 C 45.56 51.39 44.33 52.84 42.79 53.55 C 41.17 54.74 39.51 55.29 37.85 56.15 C 36.24 56.97 35.09 57.93 33.31 58.62 C 32.31 59.10 31.12 59.44 29.99 59.34 C 29.03 59.73 27.24 60.05 26.46 60.41 C 25.96 59.87 25.41 59.72 25.13 59.20 Z" fill="white" stroke-width="4.02"/>
<path d="M 22.18 34.78 C 22.40 34.22 22.81 33.82 23.28 33.90 C 23.91 33.47 24.42 33.63 25.65 33.20 C 26.63 33.39 27.84 32.90 29.18 33.48 C 30.46 33.20 32.05 33.90 34.12 33.76 C 35.45 34.38 37.39 34.58 39.00 35.37 C 40.76 35.38 42.40 36.36 43.70 36.59 C 45.45 37.11 46.94 37.65 48.19 38.49 C 49.30 38.99 50.80 39.37 51.47 40.23 C 52.63 40.66 53.39 41.69 53.68 41.67 C 54.11 42.66 53.26 42.79 53.44 43.02 C 53.06 43.36 53.04 44.15 52.88 44.33 C 51.96 44.51 51.03 44.77 50.13 44.68 C 49.23 44.62 47.83 44.64 46.53 44.55 C 44.80 44.41 43.20 44.54 41.92 44.31 C 40.11 43.96 38.61 43.14 36.99 42.69 C 35.27 42.34 33.75 41.68 32.35 41.40 C 30.91 40.68 29.27 40.44 27.96 39.48 C 26.42 39.16 25.11 38.34 24.28 37.89 C 23.25 37.58 22.28 36.57 22.30 35.91 C 21.92 35.61 21.84 35.14 21.96 35.04 Z" fill="white" stroke-width="3.72"/>
<path d="M 31.35 18.81 C 32.15 18.18 32.13 18.15 32.95 18.38 C 33.85 18.41 34.99 18.51 35.65 19.60 C 36.61 19.75 38.08 20.38 38.71 21.72 C 40.24 22.45 41.26 23.97 42.43 25.45 C 44.05 26.57 45.26 27.68 46.31 29.19 C 47.15 30.68 48.76 32.57 49.46 33.94 C 50.56 35.60 51.11 37.20 52.19 38.53 C 52.54 39.47 52.72 40.61 53.51 41.85 C 53.83 43.01 53.72 44.01 53.82 44.42 C 53.81 45.61 53.41 45.96 53.16 46.19 C 52.67 46.71 52.35 46.75 51.38 46.51 C 50.65 46.44 49.75 46.28 48.75 45.68 C 48.01 45.13 46.72 44.01 45.72 43.05 C 44.32 42.14 43.37 40.88 41.97 39.68 C 40.94 38.70 39.16 36.92 38.24 35.52 C 36.97 34.07 36.12 32.51 35.30 30.99 C 34.16 29.72 33.24 27.79 32.66 26.79 C 32.21 25.08 31.19 23.72 30.99 22.58 C 30.44 21.36 30.80 20.80 30.91 19.95 C 30.62 19.49 31.33 19.11 31.51 18.38 Z" fill="white" stroke-width="3.39"/>
<path d="M 57.16 15.06 C 57.27 15.68 57.84 15.94 58.03 16.75 C 58.05 17.49 58.31 18.23 58.64 18.75 C 59.09 19.98 59.06 20.83 59.23 22.39 C 58.99 23.46 58.51 25.02 58.60 26.44 C 58.41 28.32 58.13 29.73 57.24 31.00 C 56.98 33.01 56.61 34.34 56.25 35.60 C 55.63 37.03 54.82 38.65 54.71 40.07 C 53.97 41.09 53.17 42.09 52.48 42.58 C 52.21 43.39 51.57 44.15 50.96 44.28 C 50.41 44.38 49.86 44.91 49.48 44.79 C 49.03 44.99 48.41 44.41 48.32 44.18 C 47.71 43.25 47.97 42.14 47.39 41.42 C 47.47 40.15 47.24 39.21 47.59 37.66 C 47.23 36.73 47.57 35.25 47.90 33.37 C 48.16 32.40 48.60 30.76 48.91 28.88 C 49.45 27.38 49.42 25.79 50.40 24.24 C 50.53 23.15 51.45 21.63 52.01 20.33 C 52.67 19.01 52.80 18.20 53.83 17.47 C 54.07 16.96 54.64 15.95 55.51 15.80 C 56.27 15.34 56.57 15.27 57.20 15.32 Z" fill="white" stroke-width="3.41"/>
<path d="M 73.46 26.99 C 73.67 27.72 73.37 28.25 73.21 28.77 C 73.42 29.33 72.84 30.13 72.23 31.05 C 71.98 31.87 70.68 33.01 69.84 33.58 C 68.75 34.55 67.85 35.60 67.02 36.61 C 65.83 37.09 64.07 38.12 62.67 39.30 C 61.47 40.11 60.20 41.08 58.97 41.89 C 57.71 42.42 56.46 42.52 55.14 43.24 C 53.53 43.77 52.31 44.58 51.27 44.41 C 50.06 44.47 49.90 44.38 49.06 44.21 C 48.45 44.23 48.09 44.00 47.72 43.99 C 47.42 43.19 47.39 42.83 47.40 42.34 C 47.44 41.97 48.27 41.14 48.46 40.00 C 49.02 39.49 50.46 38.03 51.13 37.40 C 52.16 36.44 53.37 35.38 54.21 34.39 C 55.44 33.71 56.93 32.62 58.35 31.63 C 59.29 30.88 60.78 29.97 62.50 29.56 C 63.66 28.75 65.24 28.21 66.12 27.41 C 67.51 27.43 68.41 26.92 69.57 26.55 C 70.33 26.46 71.42 26.56 72.22 26.24 C 73.22 26.48 73.63 26.97 73.53 27.37 Z" fill="white" stroke-width="3.60"/>
<path d="M 57.17 42.30 C 56.74 42.96 56.59 43.78 56.56 44.15 C 56.50 45.01 55.87 45.51 55.44 45.93 C 54.94 46.63 54.68 46.74 54.05 47.21 C 53.65 47.85 52.60 47.98 52.16 48.16 C 51.47 48.68 50.61 48.72 50.19 48.56 C 49.32 48.84 48.39 48.45 48.10 48.33 C 47.06 48.31 46.60 47.90 45.85 47.16 C 45.48 47.04 45.09 46.17 44.34 45.70 C 44.16 45.47 43.91 44.86 43.71 44.28 C 43.30 43.30 43.30 43.00 43.00 42.05 C 43.30 41.54 43.22 40.96 43.62 40.43 C 43.42 39.87 44.04 39.39 44.68 38.77 C 44.76 37.94 45.17 37.64 45.72 37.34 C 46.30 36.67 47.19 36.26 47.96 36.13 C 48.38 35.92 49.03 36.11 50.17 36.22 C 50.60 36.03 51.22 36.09 52.07 36.46 C 53.02 36.26 53.22 37.06 54.14 37.16 C 54.36 37.48 55.43 38.23 55.71 38.50 C 55.99 39.35 56.10 40.02 56.50 40.12 C 56.87 40.82 56.82 41.49 57.06 42.52 Z" fill="white" stroke-width="3.63"/>
<path d="M 53.72 42.24 C 53.90 42.47 53.44 42.61 53.78 42.35 C 53.52 42.59 53.50 42.45 53.82 42.83 C 53.57 42.94 53.41 42.79 53.39 42.83 C 53.12 43.08 53.14 42.95 53.29 42.81 C 53.39 42.79 53.19 42.93 53.21 43.13 C 53.15 43.13 52.69 42.79 52.80 42.61 C 53.13 43.02 52.93 42.55 52.64 42.71 C 52.95 43.01 52.87 42.43 52.85 42.55 C 52.43 42.71 52.44 42.46 52.36 42.61 C 52.80 42.60 52.27 42.64 52.51 42.06 C 52.77 41.94 52.54 42.28 52.79 42.22 C 52.78 42.29 52.58 41.77 52.73 41.68 C 52.37 41.92 52.94 41.87 52.46 41.86 C 52.58 41.56 52.83 41.78 52.73 41.93 C 52.96 41.79 52.96 41.97 53.33 41.76 C 53.28 41.46 53.10 41.76 53.36 41.48 C 53.49 41.59 53.29 41.95 53.27 41.56 C 53.38 41.59 53.74 41.66 53.77 42.16 C 53.84 42.29 53.54 41.86 53.40 42.18 C 53.90 41.94 53.63 42.06 53.79 42.26 Z" fill="black" stroke-width="3.97"/>
<path d="M 50.32 45.17 C 50.85 45.44 50.66 45.46 50.40 45.74 C 50.55 45.37 50.82 45.54 50.60 45.70 C 50.43 45.75 50.52 45.98 50.13 45.73 C 50.08 45.69 50.43 45.77 50.35 46.22 C 50.25 46.12 50.07 46.16 50.12 45.91 C 50.01 46.25 50.13 45.77 49.78 45.84 C 49.58 45.74 49.57 45.70 49.61 45.90 C 49.41 45.90 49.42 45.87 49.58 45.50 C 49.69 45.96 49.24 45.84 49.24 45.74 C 49.71 45.22 49.15 45.33 49.55 45.26 C 49.48 45.21 49.61 45.05 49.19 45.09 C 49.59 45.23 49.23 44.80 49.67 44.95 C 49.37 44.77 49.39 44.90 49.93 45.03 C 49.88 44.56 49.64 44.77 50.02 45.06 C 49.63 44.84 49.98 44.53 50.25 44.55 C 50.08 44.77 50.42 44.72 50.04 45.00 C 50.26 44.86 50.31 44.63 50.23 44.61 C 50.34 44.95 50.60 44.94 50.63 45.23 C 50.44 44.83 50.74 44.85 50.66 44.96 C 50.40 44.98 50.58 45.17 50.87 45.12 Z" fill="black" stroke-width="4.00"/>
<path d="M 47.39 42.27 C 47.67 42.15 47.22 42.44 47.55 42.31 C 47.44 42.74 47.63 42.59 47.66 42.71 C 47.09 42.81 47.09 42.45 47.36 42.49 C 47.34 42.73 47.05 42.65 47.09 42.73 C 47.16 42.97 46.77 43.05 47.18 42.94 C 46.57 42.97 46.76 42.61 46.85 42.91 C 46.49 42.97 46.48 42.68 46.38 42.51 C 46.52 42.89 46.62 42.87 46.63 42.67 C 46.57 42.85 46.41 42.78 46.48 42.76 C 46.20 42.20 46.07 42.17 46.59 42.39 C 46.30 42.33 46.49 42.32 46.36 42.29 C 46.38 42.18 46.64 42.24 46.52 41.79 C 46.70 41.63 46.70 41.67 46.81 41.57 C 46.73 41.69 46.81 41.74 46.48 41.67 C 46.50 41.42 46.76 41.60 46.96 41.52 C 47.00 41.69 46.96 41.91 47.38 41.99 C 47.03 41.97 47.18 41.76 47.22 41.53 C 47.46 42.05 47.56 41.86 47.16 41.90 C 47.42 41.85 47.39 42.00 47.39 42.02 C 47.45 42.44 47.59 42.37 47.52 42.32 Z" fill="black" stroke-width="3.74"/>
<path d="M 50.48 38.96 C 50.61 39.24 50.71 39.11 50.70 39.18 C 50.64 39.16 50.30 39.72 50.64 39.47 C 50.68 39.86 50.53 39.91 50.40 39.83 C 50.17 39.87 50.21 39.86 50.04 39.78 C 50.25 39.81 49.77 39.64 50.21 39.87 C 50.17 40.03 49.75 39.60 49.63 39.84 C 49.79 39.80 49.46 39.74 49.59 39.81 C 49.51 39.39 49.61 39.68 49.63 39.27 C 49.33 39.68 49.54 39.22 49.16 39.48 C 49.25 39.03 49.37 39.21 49.39 39.33 C 49.51 38.88 49.58 39.22 49.64 39.21 C 49.16 39.22 49.26 38.95 49.33 38.96 C 49.54 38.73 49.58 38.79 49.54 38.74 C 49.96 38.82 49.96 38.82 49.65 38.35 C 49.99 38.36 49.97 38.57 50.25 38.53 C 50.32 38.68 49.97 38.86 50.01 38.59 C 49.97 38.41 50.23 38.45 50.64 38.91 C 50.35 38.82 50.33 38.61 50.54 38.97 C 50.27 38.91 50.85 38.87 50.41 39.05 C 50.41 39.14 50.38 39.01 50.34 39.46 Z" fill="black" stroke-width="3.77"/>
</svg>
